%TF.GenerationSoftware,KiCad,Pcbnew,9.0.0*%
%TF.CreationDate,2025-03-20T10:04:39+05:30*%
%TF.ProjectId,Buck Convertor,4275636b-2043-46f6-9e76-6572746f722e,rev?*%
%TF.SameCoordinates,Original*%
%TF.FileFunction,Legend,Bot*%
%TF.FilePolarity,Positive*%
%FSLAX46Y46*%
G04 Gerber Fmt 4.6, Leading zero omitted, Abs format (unit mm)*
G04 Created by KiCad (PCBNEW 9.0.0) date 2025-03-20 10:04:39*
%MOMM*%
%LPD*%
G01*
G04 APERTURE LIST*
G04 Aperture macros list*
%AMRoundRect*
0 Rectangle with rounded corners*
0 $1 Rounding radius*
0 $2 $3 $4 $5 $6 $7 $8 $9 X,Y pos of 4 corners*
0 Add a 4 corners polygon primitive as box body*
4,1,4,$2,$3,$4,$5,$6,$7,$8,$9,$2,$3,0*
0 Add four circle primitives for the rounded corners*
1,1,$1+$1,$2,$3*
1,1,$1+$1,$4,$5*
1,1,$1+$1,$6,$7*
1,1,$1+$1,$8,$9*
0 Add four rect primitives between the rounded corners*
20,1,$1+$1,$2,$3,$4,$5,0*
20,1,$1+$1,$4,$5,$6,$7,0*
20,1,$1+$1,$6,$7,$8,$9,0*
20,1,$1+$1,$8,$9,$2,$3,0*%
G04 Aperture macros list end*
%TA.AperFunction,ComponentPad*%
%ADD10C,1.440000*%
%TD*%
%TA.AperFunction,ComponentPad*%
%ADD11C,1.400000*%
%TD*%
%TA.AperFunction,ComponentPad*%
%ADD12O,1.400000X1.400000*%
%TD*%
%TA.AperFunction,ComponentPad*%
%ADD13RoundRect,0.250000X-1.050000X-1.050000X1.050000X-1.050000X1.050000X1.050000X-1.050000X1.050000X0*%
%TD*%
%TA.AperFunction,ComponentPad*%
%ADD14C,2.600000*%
%TD*%
%TA.AperFunction,ComponentPad*%
%ADD15R,2.200000X2.200000*%
%TD*%
%TA.AperFunction,ComponentPad*%
%ADD16O,2.200000X2.200000*%
%TD*%
%TA.AperFunction,ComponentPad*%
%ADD17C,2.000000*%
%TD*%
%TA.AperFunction,ViaPad*%
%ADD18C,0.600000*%
%TD*%
%TA.AperFunction,Conductor*%
%ADD19C,0.200000*%
%TD*%
%ADD20C,1.440000*%
%ADD21C,1.400000*%
%ADD22O,1.400000X1.400000*%
%ADD23RoundRect,0.250000X-1.050000X-1.050000X1.050000X-1.050000X1.050000X1.050000X-1.050000X1.050000X0*%
%ADD24C,2.600000*%
%ADD25R,2.200000X2.200000*%
%ADD26O,2.200000X2.200000*%
%ADD27C,2.000000*%
%TA.AperFunction,SMDPad,CuDef*%
%ADD28RoundRect,0.140000X-0.140000X-0.170000X0.140000X-0.170000X0.140000X0.170000X-0.140000X0.170000X0*%
%TD*%
%TA.AperFunction,SMDPad,CuDef*%
%ADD29RoundRect,0.150000X-0.825000X-0.150000X0.825000X-0.150000X0.825000X0.150000X-0.825000X0.150000X0*%
%TD*%
%TA.AperFunction,SMDPad,CuDef*%
%ADD30RoundRect,0.200000X-0.200000X-0.275000X0.200000X-0.275000X0.200000X0.275000X-0.200000X0.275000X0*%
%TD*%
%TA.AperFunction,SMDPad,CuDef*%
%ADD31R,0.900000X1.850000*%
%TD*%
%TA.AperFunction,SMDPad,CuDef*%
%ADD32R,0.650000X1.150000*%
%TD*%
%TA.AperFunction,SMDPad,CuDef*%
%ADD33R,0.650000X1.350000*%
%TD*%
%TA.AperFunction,SMDPad,CuDef*%
%ADD34R,1.000000X1.350000*%
%TD*%
%ADD35RoundRect,0.140000X-0.140000X-0.170000X0.140000X-0.170000X0.140000X0.170000X-0.140000X0.170000X0*%
%ADD36RoundRect,0.150000X-0.825000X-0.150000X0.825000X-0.150000X0.825000X0.150000X-0.825000X0.150000X0*%
%ADD37RoundRect,0.200000X-0.200000X-0.275000X0.200000X-0.275000X0.200000X0.275000X-0.200000X0.275000X0*%
%ADD38R,0.900000X1.850000*%
%ADD39R,0.650000X1.150000*%
%ADD40R,0.650000X1.350000*%
%ADD41R,1.000000X1.350000*%
%ADD42C,0.150000*%
%ADD43C,0.120000*%
%TA.AperFunction,Profile*%
%ADD44C,0.050000*%
%TD*%
G04 APERTURE END LIST*
D10*
%TO.P,RV1,1,1*%
%TO.N,Net-(D3-A)*%
X177250000Y-84250000D03*
%TO.P,RV1,2,2*%
%TO.N,Net-(U1-THR)*%
X174710000Y-86790000D03*
%TO.P,RV1,3,3*%
%TO.N,Net-(D2-K)*%
X172170000Y-84250000D03*
%TD*%
D11*
%TO.P,R1,1*%
%TO.N,Net-(U1-Q)*%
X128710000Y-114750000D03*
D12*
%TO.P,R1,2*%
%TO.N,Net-(Q1-G)*%
X133790000Y-114750000D03*
%TD*%
D13*
%TO.P,J2,1,Pin_1*%
%TO.N,Net-(J1-Pin_1)*%
X167920000Y-61000000D03*
D14*
%TO.P,J2,2,Pin_2*%
%TO.N,GND*%
X173000000Y-61000000D03*
%TD*%
D13*
%TO.P,J1,1,Pin_1*%
%TO.N,Net-(J1-Pin_1)*%
X127705000Y-66672500D03*
D14*
%TO.P,J1,2,Pin_2*%
%TO.N,Net-(D1-A)*%
X132785000Y-66672500D03*
%TD*%
D15*
%TO.P,D3,1,K*%
%TO.N,Net-(D2-A)*%
X203420000Y-85250000D03*
D16*
%TO.P,D3,2,A*%
%TO.N,Net-(D3-A)*%
X213580000Y-85250000D03*
%TD*%
D15*
%TO.P,D2,1,K*%
%TO.N,Net-(D2-K)*%
X202920000Y-73500000D03*
D16*
%TO.P,D2,2,A*%
%TO.N,Net-(D2-A)*%
X213080000Y-73500000D03*
%TD*%
D15*
%TO.P,D1,1,K*%
%TO.N,Net-(D1-K)*%
X202670000Y-60500000D03*
D16*
%TO.P,D1,2,A*%
%TO.N,Net-(D1-A)*%
X212830000Y-60500000D03*
%TD*%
D17*
%TO.P,C2,1*%
%TO.N,GND*%
X204000000Y-99500000D03*
%TO.P,C2,2*%
%TO.N,Net-(U1-THR)*%
X214000000Y-99500000D03*
%TD*%
D18*
%TO.N,Net-(J1-Pin_1)*%
X144500000Y-57250000D03*
X139000000Y-57250000D03*
%TO.N,Net-(U1-THR)*%
X203000000Y-93000000D03*
X195000000Y-89750000D03*
X150250000Y-92500000D03*
X155500000Y-91250000D03*
%TO.N,GND*%
X182500000Y-115000000D03*
X179250000Y-115250000D03*
X150750000Y-116500000D03*
X175000000Y-116500000D03*
X144500000Y-79750000D03*
X139250000Y-85250000D03*
%TO.N,Net-(U1-CV)*%
X146250000Y-96500000D03*
X146250000Y-93750000D03*
%TO.N,Net-(U1-Q)*%
X132750000Y-98500000D03*
X137250000Y-93750000D03*
%TO.N,Net-(D2-A)*%
X147000000Y-87500000D03*
X139000000Y-82500000D03*
%TD*%
D19*
%TO.N,Net-(J1-Pin_1)*%
X139000000Y-57250000D02*
X144500000Y-57250000D01*
%TO.N,Net-(U1-THR)*%
X198250000Y-93000000D02*
X203000000Y-93000000D01*
X195000000Y-89750000D02*
X198250000Y-93000000D01*
X151500000Y-91250000D02*
X150250000Y-92500000D01*
X155500000Y-91250000D02*
X151500000Y-91250000D01*
%TO.N,GND*%
X182250000Y-115250000D02*
X182500000Y-115000000D01*
X179250000Y-115250000D02*
X182250000Y-115250000D01*
X175000000Y-116500000D02*
X150750000Y-116500000D01*
X135750000Y-79500000D02*
X144250000Y-79500000D01*
X134500000Y-80750000D02*
X135750000Y-79500000D01*
X144250000Y-79500000D02*
X144500000Y-79750000D01*
X134500000Y-82750000D02*
X134500000Y-80750000D01*
X137000000Y-85250000D02*
X134500000Y-82750000D01*
X139250000Y-85250000D02*
X137000000Y-85250000D01*
%TO.N,Net-(U1-CV)*%
X146250000Y-93750000D02*
X146250000Y-96500000D01*
%TO.N,Net-(U1-Q)*%
X132750000Y-98250000D02*
X132750000Y-98500000D01*
X137250000Y-93750000D02*
X132750000Y-98250000D01*
%TO.N,Net-(D2-A)*%
X146750000Y-87250000D02*
X147000000Y-87500000D01*
X146750000Y-86250000D02*
X146750000Y-87250000D01*
X143000000Y-82500000D02*
X146750000Y-86250000D01*
X139000000Y-82500000D02*
X143000000Y-82500000D01*
%TD*%
D20*
%TO.C,RV1*%
X177250000Y-84250000D03*
X174710000Y-86790000D03*
X172170000Y-84250000D03*
%TD*%
D21*
%TO.C,R1*%
X128710000Y-114750000D03*
D22*
X133790000Y-114750000D03*
%TD*%
D23*
%TO.C,J2*%
X167920000Y-61000000D03*
D24*
X173000000Y-61000000D03*
%TD*%
D23*
%TO.C,J1*%
X127705000Y-66672500D03*
D24*
X132785000Y-66672500D03*
%TD*%
D25*
%TO.C,D3*%
X203420000Y-85250000D03*
D26*
X213580000Y-85250000D03*
%TD*%
D25*
%TO.C,D2*%
X202920000Y-73500000D03*
D26*
X213080000Y-73500000D03*
%TD*%
D25*
%TO.C,D1*%
X202670000Y-60500000D03*
D26*
X212830000Y-60500000D03*
%TD*%
D27*
%TO.C,C2*%
X204000000Y-99500000D03*
X214000000Y-99500000D03*
%TD*%
D28*
%TO.P,C1,1*%
%TO.N,Net-(U1-CV)*%
X147425000Y-114750000D03*
%TO.P,C1,2*%
%TO.N,GND*%
X148385000Y-114750000D03*
%TD*%
D29*
%TO.P,U1,1,GND*%
%TO.N,GND*%
X139350000Y-87925000D03*
%TO.P,U1,2,TR*%
%TO.N,Net-(U1-THR)*%
X139350000Y-89195000D03*
%TO.P,U1,3,Q*%
%TO.N,Net-(U1-Q)*%
X139350000Y-90465000D03*
%TO.P,U1,4,R*%
%TO.N,Net-(J1-Pin_1)*%
X139350000Y-91735000D03*
%TO.P,U1,5,CV*%
%TO.N,Net-(U1-CV)*%
X144300000Y-91735000D03*
%TO.P,U1,6,THR*%
%TO.N,Net-(U1-THR)*%
X144300000Y-90465000D03*
%TO.P,U1,7,DIS*%
%TO.N,Net-(D2-A)*%
X144300000Y-89195000D03*
%TO.P,U1,8,VCC*%
%TO.N,Net-(J1-Pin_1)*%
X144300000Y-87925000D03*
%TD*%
D10*
%TO.P,RV1,1,1*%
%TO.N,Net-(D3-A)*%
X177250000Y-84250000D03*
%TO.P,RV1,2,2*%
%TO.N,Net-(U1-THR)*%
X174710000Y-86790000D03*
%TO.P,RV1,3,3*%
%TO.N,Net-(D2-K)*%
X172170000Y-84250000D03*
%TD*%
D30*
%TO.P,R2,1*%
%TO.N,Net-(J1-Pin_1)*%
X121350000Y-88500000D03*
%TO.P,R2,2*%
%TO.N,Net-(D2-A)*%
X123000000Y-88500000D03*
%TD*%
D11*
%TO.P,R1,1*%
%TO.N,Net-(U1-Q)*%
X128710000Y-114750000D03*
D12*
%TO.P,R1,2*%
%TO.N,Net-(Q1-G)*%
X133790000Y-114750000D03*
%TD*%
D31*
%TO.P,Q1,1,D*%
%TO.N,Net-(D1-K)*%
X174000000Y-108500000D03*
X174000000Y-110850000D03*
X180400000Y-108500000D03*
X180400000Y-110850000D03*
D32*
%TO.P,Q1,2,G*%
%TO.N,Net-(Q1-G)*%
X175650000Y-108725000D03*
D33*
%TO.P,Q1,3,S*%
%TO.N,GND*%
X175650000Y-110525000D03*
D34*
X177025000Y-108825000D03*
X177025000Y-110525000D03*
%TD*%
D13*
%TO.P,J2,1,Pin_1*%
%TO.N,Net-(J1-Pin_1)*%
X167920000Y-61000000D03*
D14*
%TO.P,J2,2,Pin_2*%
%TO.N,GND*%
X173000000Y-61000000D03*
%TD*%
D13*
%TO.P,J1,1,Pin_1*%
%TO.N,Net-(J1-Pin_1)*%
X127705000Y-66672500D03*
D14*
%TO.P,J1,2,Pin_2*%
%TO.N,Net-(D1-A)*%
X132785000Y-66672500D03*
%TD*%
D15*
%TO.P,D3,1,K*%
%TO.N,Net-(D2-A)*%
X203420000Y-85250000D03*
D16*
%TO.P,D3,2,A*%
%TO.N,Net-(D3-A)*%
X213580000Y-85250000D03*
%TD*%
D15*
%TO.P,D2,1,K*%
%TO.N,Net-(D2-K)*%
X202920000Y-73500000D03*
D16*
%TO.P,D2,2,A*%
%TO.N,Net-(D2-A)*%
X213080000Y-73500000D03*
%TD*%
D15*
%TO.P,D1,1,K*%
%TO.N,Net-(D1-K)*%
X202670000Y-60500000D03*
D16*
%TO.P,D1,2,A*%
%TO.N,Net-(D1-A)*%
X212830000Y-60500000D03*
%TD*%
D17*
%TO.P,C2,1*%
%TO.N,GND*%
X204000000Y-99500000D03*
%TO.P,C2,2*%
%TO.N,Net-(U1-THR)*%
X214000000Y-99500000D03*
%TD*%
D18*
%TO.N,Net-(J1-Pin_1)*%
X144500000Y-57250000D03*
X139000000Y-57250000D03*
%TO.N,Net-(U1-THR)*%
X203000000Y-93000000D03*
X195000000Y-89750000D03*
X150250000Y-92500000D03*
X155500000Y-91250000D03*
%TO.N,GND*%
X182500000Y-115000000D03*
X179250000Y-115250000D03*
X150750000Y-116500000D03*
X175000000Y-116500000D03*
X144500000Y-79750000D03*
X139250000Y-85250000D03*
%TO.N,Net-(U1-CV)*%
X146250000Y-96500000D03*
X146250000Y-93750000D03*
%TO.N,Net-(U1-Q)*%
X132750000Y-98500000D03*
X137250000Y-93750000D03*
%TO.N,Net-(D2-A)*%
X147000000Y-87500000D03*
X139000000Y-82500000D03*
%TD*%
D19*
%TO.N,Net-(U1-CV)*%
X144750000Y-114750000D02*
X147585000Y-114750000D01*
X144500000Y-115000000D02*
X144750000Y-114750000D01*
X144500000Y-119000000D02*
X144500000Y-115000000D01*
X145000000Y-119500000D02*
X144500000Y-119000000D01*
%TO.N,Net-(J1-Pin_1)*%
X144500000Y-57250000D02*
X144500000Y-59750000D01*
X144500000Y-59750000D02*
X143250000Y-61000000D01*
X143250000Y-61000000D02*
X143000000Y-61000000D01*
X129000000Y-57250000D02*
X139000000Y-57250000D01*
X127705000Y-58545000D02*
X129000000Y-57250000D01*
X127705000Y-66672500D02*
X127705000Y-58545000D01*
%TO.N,Net-(U1-THR)*%
X214000000Y-94750000D02*
X214000000Y-99500000D01*
X214250000Y-94500000D02*
X214000000Y-94750000D01*
X212750000Y-93000000D02*
X214250000Y-94500000D01*
X203000000Y-93000000D02*
X212750000Y-93000000D01*
X192040000Y-86790000D02*
X195000000Y-89750000D01*
X174710000Y-86790000D02*
X192040000Y-86790000D01*
X150000000Y-92500000D02*
X148250000Y-90750000D01*
X150250000Y-92500000D02*
X150000000Y-92500000D01*
X159960000Y-86790000D02*
X155500000Y-91250000D01*
X174710000Y-86790000D02*
X159960000Y-86790000D01*
%TO.N,GND*%
X184750000Y-99500000D02*
X204000000Y-99500000D01*
X182500000Y-101750000D02*
X184750000Y-99500000D01*
X182500000Y-115000000D02*
X182500000Y-101750000D01*
X148499000Y-114476000D02*
X148225000Y-114750000D01*
X150750000Y-116500000D02*
X148726000Y-114476000D01*
X148726000Y-114476000D02*
X148499000Y-114476000D01*
X175650000Y-115850000D02*
X175000000Y-116500000D01*
X175650000Y-110525000D02*
X175650000Y-115850000D01*
%TO.N,Net-(Q1-G)*%
X133790000Y-120210000D02*
X133790000Y-114750000D01*
X133250000Y-120750000D02*
X133790000Y-120210000D01*
X133250000Y-121000000D02*
X133250000Y-120750000D01*
X175024000Y-113726000D02*
X175024000Y-109351000D01*
X166500000Y-122250000D02*
X175024000Y-113726000D01*
X175024000Y-109351000D02*
X175650000Y-108725000D01*
X134500000Y-122250000D02*
X166500000Y-122250000D01*
X133250000Y-121000000D02*
X134500000Y-122250000D01*
%TO.N,GND*%
X179250000Y-109250000D02*
X179250000Y-115250000D01*
X178825000Y-108825000D02*
X179250000Y-109250000D01*
X177025000Y-108825000D02*
X178825000Y-108825000D01*
X177025000Y-110525000D02*
X177025000Y-108825000D01*
X175650000Y-110525000D02*
X177025000Y-110525000D01*
%TO.N,Net-(D1-K)*%
X174000000Y-108500000D02*
X174000000Y-110850000D01*
X174651000Y-107849000D02*
X174000000Y-108500000D01*
X179749000Y-107849000D02*
X174651000Y-107849000D01*
X180400000Y-108500000D02*
X179749000Y-107849000D01*
X180400000Y-110850000D02*
X180400000Y-108500000D01*
X180400000Y-118850000D02*
X180400000Y-110850000D01*
X180000000Y-119250000D02*
X180400000Y-118850000D01*
X223750000Y-116000000D02*
X220500000Y-119250000D01*
X220500000Y-119250000D02*
X180000000Y-119250000D01*
X223750000Y-68000000D02*
X223750000Y-116000000D01*
X205375000Y-66125000D02*
X221875000Y-66125000D01*
X205375000Y-66125000D02*
X202670000Y-63420000D01*
X221875000Y-66125000D02*
X223750000Y-68000000D01*
X202670000Y-63420000D02*
X202670000Y-60500000D01*
%TO.N,Net-(D3-A)*%
X217500000Y-81330000D02*
X213580000Y-85250000D01*
X217500000Y-68750000D02*
X217500000Y-81330000D01*
X197250000Y-84250000D02*
X177250000Y-84250000D01*
X212750000Y-68750000D02*
X197250000Y-84250000D01*
X217500000Y-68750000D02*
X212750000Y-68750000D01*
%TO.N,Net-(D2-K)*%
X172170000Y-75170000D02*
X172170000Y-84250000D01*
X172000000Y-75000000D02*
X172170000Y-75170000D01*
X173500000Y-73500000D02*
X172000000Y-75000000D01*
X202920000Y-73500000D02*
X173500000Y-73500000D01*
%TO.N,Net-(D2-A)*%
X203420000Y-83160000D02*
X213080000Y-73500000D01*
X203420000Y-85250000D02*
X203420000Y-83160000D01*
X203420000Y-86580000D02*
X203420000Y-85250000D01*
X192000000Y-98000000D02*
X203420000Y-86580000D01*
X155750000Y-96250000D02*
X155750000Y-98000000D01*
X155750000Y-98000000D02*
X192000000Y-98000000D01*
X147000000Y-87500000D02*
X155750000Y-96250000D01*
%TO.N,GND*%
X154250000Y-79750000D02*
X173000000Y-61000000D01*
X144500000Y-79750000D02*
X154250000Y-79750000D01*
X139350000Y-85350000D02*
X139250000Y-85250000D01*
X139350000Y-87925000D02*
X139350000Y-85350000D01*
%TO.N,Net-(U1-CV)*%
X152750000Y-118500000D02*
X151750000Y-119500000D01*
X151750000Y-119500000D02*
X145000000Y-119500000D01*
X151500000Y-96500000D02*
X152750000Y-97750000D01*
X152750000Y-97750000D02*
X152750000Y-118500000D01*
X146250000Y-96500000D02*
X151500000Y-96500000D01*
X146250000Y-93685000D02*
X146250000Y-93750000D01*
X144300000Y-91735000D02*
X146250000Y-93685000D01*
%TO.N,Net-(U1-Q)*%
X132750000Y-110710000D02*
X128710000Y-114750000D01*
X132750000Y-98500000D02*
X132750000Y-110710000D01*
X137250000Y-91590001D02*
X137250000Y-93750000D01*
X138375001Y-90465000D02*
X137250000Y-91590001D01*
X139350000Y-90465000D02*
X138375001Y-90465000D01*
%TO.N,GND*%
X134250000Y-100615130D02*
X148225000Y-114590130D01*
X134250000Y-90000000D02*
X134250000Y-100615130D01*
X148225000Y-114590130D02*
X148225000Y-114750000D01*
X134250000Y-90000000D02*
X136325000Y-87925000D01*
X136325000Y-87925000D02*
X139350000Y-87925000D01*
%TO.N,Net-(D2-A)*%
X145305000Y-89195000D02*
X144300000Y-89195000D01*
X147000000Y-87500000D02*
X145305000Y-89195000D01*
%TO.N,Net-(U1-THR)*%
X137305000Y-89195000D02*
X139350000Y-89195000D01*
X137250000Y-89250000D02*
X137305000Y-89195000D01*
X137000000Y-89250000D02*
X137250000Y-89250000D01*
X136000000Y-90250000D02*
X137000000Y-89250000D01*
X136000000Y-94250000D02*
X136000000Y-90250000D01*
X147250000Y-95250000D02*
X137000000Y-95250000D01*
X148250000Y-94250000D02*
X147250000Y-95250000D01*
X137000000Y-95250000D02*
X136000000Y-94250000D01*
X147750000Y-90250000D02*
X148250000Y-90750000D01*
X144515000Y-90250000D02*
X147750000Y-90250000D01*
X144300000Y-90465000D02*
X144515000Y-90250000D01*
X148250000Y-90750000D02*
X148250000Y-94250000D01*
%TO.N,Net-(D2-A)*%
X133000000Y-88500000D02*
X139000000Y-82500000D01*
X123000000Y-88500000D02*
X133000000Y-88500000D01*
%TO.N,Net-(J1-Pin_1)*%
X140143032Y-91735000D02*
X139350000Y-91735000D01*
X143953032Y-87925000D02*
X140143032Y-91735000D01*
X144300000Y-87925000D02*
X143953032Y-87925000D01*
X141500000Y-85125000D02*
X144300000Y-87925000D01*
X141500000Y-62500000D02*
X141500000Y-85125000D01*
X143000000Y-61000000D02*
X141500000Y-62500000D01*
X167920000Y-61000000D02*
X143250000Y-61000000D01*
X121350000Y-87600000D02*
X121350000Y-88500000D01*
X119000000Y-85250000D02*
X121350000Y-87600000D01*
X119000000Y-67500000D02*
X119000000Y-85250000D01*
X119827500Y-66672500D02*
X119000000Y-67500000D01*
X127705000Y-66672500D02*
X119827500Y-66672500D01*
%TO.N,Net-(D1-A)*%
X204750000Y-50500000D02*
X212830000Y-58580000D01*
X148957500Y-50500000D02*
X204750000Y-50500000D01*
X212830000Y-58580000D02*
X212830000Y-60500000D01*
X132785000Y-66672500D02*
X148957500Y-50500000D01*
%TD*%
%TA.AperFunction,NonConductor*%
G36*
X147043333Y-88408415D02*
G01*
X147087680Y-88436916D01*
X148166135Y-89515371D01*
X148199620Y-89576694D01*
X148194636Y-89646386D01*
X148152764Y-89702319D01*
X148087300Y-89726736D01*
X148019027Y-89711884D01*
X148016455Y-89710440D01*
X147981783Y-89690422D01*
X147909877Y-89671155D01*
X147829057Y-89649499D01*
X147670943Y-89649499D01*
X147663347Y-89649499D01*
X147663331Y-89649500D01*
X145999096Y-89649500D01*
X145932057Y-89629815D01*
X145886302Y-89577011D01*
X145876358Y-89507853D01*
X145905383Y-89444297D01*
X145911415Y-89437819D01*
X146912318Y-88436916D01*
X146973641Y-88403431D01*
X147043333Y-88408415D01*
G37*
%TD.AperFunction*%
%TA.AperFunction,NonConductor*%
G36*
X137864876Y-89797198D02*
G01*
X137870795Y-89796053D01*
X137898018Y-89806929D01*
X137926132Y-89815185D01*
X137930078Y-89819738D01*
X137935677Y-89821976D01*
X137952699Y-89845844D01*
X137971887Y-89867989D01*
X137972744Y-89873953D01*
X137976245Y-89878862D01*
X137977659Y-89908138D01*
X137981831Y-89937147D01*
X137979396Y-89944064D01*
X137979618Y-89948651D01*
X137966523Y-89981426D01*
X137966177Y-89982026D01*
X137923256Y-90054602D01*
X137922151Y-90058402D01*
X137916432Y-90068325D01*
X137896683Y-90094080D01*
X136881286Y-91109479D01*
X136812181Y-91178584D01*
X136750858Y-91212069D01*
X136681166Y-91207085D01*
X136625233Y-91165213D01*
X136600816Y-91099749D01*
X136600500Y-91090903D01*
X136600500Y-90550097D01*
X136620185Y-90483058D01*
X136636819Y-90462416D01*
X137212416Y-89886820D01*
X137273739Y-89853335D01*
X137300097Y-89850501D01*
X137329054Y-89850501D01*
X137329057Y-89850501D01*
X137481785Y-89809577D01*
X137481787Y-89809575D01*
X137481789Y-89809575D01*
X137489299Y-89806465D01*
X137490216Y-89808679D01*
X137539393Y-89795500D01*
X137859093Y-89795500D01*
X137864876Y-89797198D01*
G37*
%TD.AperFunction*%
%TA.AperFunction,NonConductor*%
G36*
X147516942Y-90870185D02*
G01*
X147537584Y-90886819D01*
X147613181Y-90962416D01*
X147646666Y-91023739D01*
X147649500Y-91050097D01*
X147649500Y-93949902D01*
X147629815Y-94016941D01*
X147613181Y-94037583D01*
X147037584Y-94613181D01*
X146976261Y-94646666D01*
X146949903Y-94649500D01*
X146753439Y-94649500D01*
X146686400Y-94629815D01*
X146640645Y-94577011D01*
X146630701Y-94507853D01*
X146659726Y-94444297D01*
X146684548Y-94422398D01*
X146713981Y-94402730D01*
X146760289Y-94371789D01*
X146871789Y-94260289D01*
X146959394Y-94129179D01*
X147019737Y-93983497D01*
X147050500Y-93828842D01*
X147050500Y-93671158D01*
X147050500Y-93671155D01*
X147050499Y-93671153D01*
X147019737Y-93516503D01*
X147017163Y-93510288D01*
X146959397Y-93370827D01*
X146959390Y-93370814D01*
X146871789Y-93239711D01*
X146871786Y-93239707D01*
X146760292Y-93128213D01*
X146760288Y-93128210D01*
X146629185Y-93040609D01*
X146629172Y-93040602D01*
X146483501Y-92980264D01*
X146483489Y-92980261D01*
X146409291Y-92965502D01*
X146347380Y-92933117D01*
X146345801Y-92931566D01*
X145732654Y-92318419D01*
X145699169Y-92257096D01*
X145704153Y-92187404D01*
X145713604Y-92167616D01*
X145726744Y-92145398D01*
X145772598Y-91987569D01*
X145775500Y-91950694D01*
X145775500Y-91519306D01*
X145772598Y-91482431D01*
X145726744Y-91324602D01*
X145643081Y-91183135D01*
X145643078Y-91183132D01*
X145638298Y-91176969D01*
X145640750Y-91175066D01*
X145614155Y-91126421D01*
X145619104Y-91056726D01*
X145629574Y-91035221D01*
X145637243Y-91022702D01*
X145643081Y-91016865D01*
X145705959Y-90910543D01*
X145706463Y-90909721D01*
X145731693Y-90886889D01*
X145756534Y-90863696D01*
X145757604Y-90863442D01*
X145758270Y-90862840D01*
X145764506Y-90861805D01*
X145812197Y-90850500D01*
X147449903Y-90850500D01*
X147516942Y-90870185D01*
G37*
%TD.AperFunction*%
%TA.AperFunction,NonConductor*%
G36*
X142747447Y-90082332D02*
G01*
X142803380Y-90124204D01*
X142827797Y-90189668D01*
X142827731Y-90208241D01*
X142824500Y-90249295D01*
X142824500Y-90680701D01*
X142827401Y-90717567D01*
X142827402Y-90717573D01*
X142873254Y-90875393D01*
X142873255Y-90875396D01*
X142873256Y-90875398D01*
X142910681Y-90938681D01*
X142956917Y-91016862D01*
X142961702Y-91023031D01*
X142959256Y-91024927D01*
X142985857Y-91073642D01*
X142980873Y-91143334D01*
X142960069Y-91175703D01*
X142961702Y-91176969D01*
X142956917Y-91183137D01*
X142873255Y-91324603D01*
X142873254Y-91324606D01*
X142827402Y-91482426D01*
X142827401Y-91482432D01*
X142824500Y-91519298D01*
X142824500Y-91950701D01*
X142827401Y-91987567D01*
X142827402Y-91987573D01*
X142873254Y-92145393D01*
X142873255Y-92145396D01*
X142956917Y-92286862D01*
X142956923Y-92286870D01*
X143073129Y-92403076D01*
X143073133Y-92403079D01*
X143073135Y-92403081D01*
X143214602Y-92486744D01*
X143256224Y-92498836D01*
X143372426Y-92532597D01*
X143372429Y-92532597D01*
X143372431Y-92532598D01*
X143409306Y-92535500D01*
X144199903Y-92535500D01*
X144266942Y-92555185D01*
X144287584Y-92571819D01*
X145413181Y-93697416D01*
X145446666Y-93758739D01*
X145449500Y-93785097D01*
X145449500Y-93828846D01*
X145480261Y-93983489D01*
X145480264Y-93983501D01*
X145540602Y-94129172D01*
X145540609Y-94129185D01*
X145628210Y-94260288D01*
X145628213Y-94260292D01*
X145739707Y-94371786D01*
X145739711Y-94371789D01*
X145815452Y-94422398D01*
X145860257Y-94476010D01*
X145868964Y-94545335D01*
X145838810Y-94608363D01*
X145779366Y-94645082D01*
X145746561Y-94649500D01*
X137753439Y-94649500D01*
X137686400Y-94629815D01*
X137640645Y-94577011D01*
X137630701Y-94507853D01*
X137659726Y-94444297D01*
X137684548Y-94422398D01*
X137713981Y-94402730D01*
X137760289Y-94371789D01*
X137871789Y-94260289D01*
X137959394Y-94129179D01*
X138019737Y-93983497D01*
X138050500Y-93828842D01*
X138050500Y-93671158D01*
X138050500Y-93671155D01*
X138050499Y-93671153D01*
X138019737Y-93516503D01*
X138017163Y-93510288D01*
X137959397Y-93370827D01*
X137959390Y-93370814D01*
X137871398Y-93239125D01*
X137850520Y-93172447D01*
X137850500Y-93170234D01*
X137850500Y-92429809D01*
X137870185Y-92362770D01*
X137922989Y-92317015D01*
X137992147Y-92307071D01*
X138055703Y-92336096D01*
X138062181Y-92342128D01*
X138123129Y-92403076D01*
X138123133Y-92403079D01*
X138123135Y-92403081D01*
X138264602Y-92486744D01*
X138306224Y-92498836D01*
X138422426Y-92532597D01*
X138422429Y-92532597D01*
X138422431Y-92532598D01*
X138459306Y-92535500D01*
X138459314Y-92535500D01*
X140240686Y-92535500D01*
X140240694Y-92535500D01*
X140277569Y-92532598D01*
X140277571Y-92532597D01*
X140277573Y-92532597D01*
X140322724Y-92519479D01*
X140435398Y-92486744D01*
X140576865Y-92403081D01*
X140693081Y-92286865D01*
X140776744Y-92145398D01*
X140822598Y-91987569D01*
X140825500Y-91950694D01*
X140825500Y-91950675D01*
X140825595Y-91948266D01*
X140825690Y-91948269D01*
X140825691Y-91948267D01*
X140825761Y-91948272D01*
X140826912Y-91948317D01*
X140845185Y-91886089D01*
X140861814Y-91865452D01*
X142616434Y-90110831D01*
X142677755Y-90077348D01*
X142747447Y-90082332D01*
G37*
%TD.AperFunction*%
%TA.AperFunction,NonConductor*%
G36*
X135380047Y-89804192D02*
G01*
X135396386Y-89805361D01*
X135411813Y-89816909D01*
X135429704Y-89824072D01*
X135439205Y-89837414D01*
X135452320Y-89847232D01*
X135459054Y-89865288D01*
X135470233Y-89880986D01*
X135471012Y-89897349D01*
X135476737Y-89912697D01*
X135472640Y-89931526D01*
X135473558Y-89950777D01*
X135462379Y-89978698D01*
X135461885Y-89980970D01*
X135460440Y-89983542D01*
X135440425Y-90018207D01*
X135440424Y-90018210D01*
X135431299Y-90052265D01*
X135399499Y-90170943D01*
X135399499Y-90170945D01*
X135399499Y-90339046D01*
X135399500Y-90339059D01*
X135399500Y-94163330D01*
X135399499Y-94163348D01*
X135399499Y-94329054D01*
X135399498Y-94329054D01*
X135440424Y-94481789D01*
X135440425Y-94481790D01*
X135461455Y-94518214D01*
X135461456Y-94518216D01*
X135519475Y-94618709D01*
X135519481Y-94618717D01*
X135638349Y-94737585D01*
X135638354Y-94737589D01*
X136631284Y-95730520D01*
X136631286Y-95730521D01*
X136631290Y-95730524D01*
X136701718Y-95771185D01*
X136768216Y-95809577D01*
X136920943Y-95850501D01*
X136920945Y-95850501D01*
X137086654Y-95850501D01*
X137086670Y-95850500D01*
X145489241Y-95850500D01*
X145556280Y-95870185D01*
X145602035Y-95922989D01*
X145611979Y-95992147D01*
X145592343Y-96043391D01*
X145540609Y-96120815D01*
X145540602Y-96120827D01*
X145480264Y-96266498D01*
X145480261Y-96266510D01*
X145449500Y-96421153D01*
X145449500Y-96578846D01*
X145480261Y-96733489D01*
X145480264Y-96733501D01*
X145540602Y-96879172D01*
X145540609Y-96879185D01*
X145628210Y-97010288D01*
X145628213Y-97010292D01*
X145739707Y-97121786D01*
X145739711Y-97121789D01*
X145870814Y-97209390D01*
X145870827Y-97209397D01*
X146016498Y-97269735D01*
X146016503Y-97269737D01*
X146171153Y-97300499D01*
X146171156Y-97300500D01*
X146171158Y-97300500D01*
X146328844Y-97300500D01*
X146328845Y-97300499D01*
X146483497Y-97269737D01*
X146629179Y-97209394D01*
X146629185Y-97209390D01*
X146760875Y-97121398D01*
X146827553Y-97100520D01*
X146829766Y-97100500D01*
X151199903Y-97100500D01*
X151266942Y-97120185D01*
X151287584Y-97136819D01*
X152113181Y-97962416D01*
X152146666Y-98023739D01*
X152149500Y-98050097D01*
X152149500Y-118199902D01*
X152129815Y-118266941D01*
X152113181Y-118287583D01*
X151537584Y-118863181D01*
X151476261Y-118896666D01*
X151449903Y-118899500D01*
X145300098Y-118899500D01*
X145270657Y-118890855D01*
X145240671Y-118884332D01*
X145235655Y-118880577D01*
X145233059Y-118879815D01*
X145212417Y-118863181D01*
X145136819Y-118787583D01*
X145103334Y-118726260D01*
X145100500Y-118699902D01*
X145100500Y-115474500D01*
X145120185Y-115407461D01*
X145172989Y-115361706D01*
X145224500Y-115350500D01*
X146758334Y-115350500D01*
X146825373Y-115370185D01*
X146846016Y-115386820D01*
X146889307Y-115430112D01*
X146889311Y-115430115D01*
X146889313Y-115430117D01*
X147028605Y-115512494D01*
X147045581Y-115517426D01*
X147184002Y-115557642D01*
X147184005Y-115557642D01*
X147184007Y-115557643D01*
X147220310Y-115560500D01*
X147220318Y-115560500D01*
X147629682Y-115560500D01*
X147629690Y-115560500D01*
X147665993Y-115557643D01*
X147665995Y-115557642D01*
X147665997Y-115557642D01*
X147706975Y-115545736D01*
X147821395Y-115512494D01*
X147841879Y-115500379D01*
X147909601Y-115483196D01*
X147968119Y-115500379D01*
X147988605Y-115512494D01*
X147988607Y-115512494D01*
X147988608Y-115512495D01*
X148144002Y-115557642D01*
X148144005Y-115557642D01*
X148144007Y-115557643D01*
X148180310Y-115560500D01*
X148180318Y-115560500D01*
X148589682Y-115560500D01*
X148589690Y-115560500D01*
X148625993Y-115557643D01*
X148625995Y-115557642D01*
X148625997Y-115557642D01*
X148666975Y-115545736D01*
X148781395Y-115512494D01*
X148781463Y-115512453D01*
X148781523Y-115512438D01*
X148788554Y-115509396D01*
X148789044Y-115510529D01*
X148849185Y-115495269D01*
X148915448Y-115517426D01*
X148932268Y-115531503D01*
X149915425Y-116514660D01*
X149948910Y-116575983D01*
X149949361Y-116578149D01*
X149980261Y-116733491D01*
X149980264Y-116733501D01*
X150040602Y-116879172D01*
X150040609Y-116879185D01*
X150128210Y-117010288D01*
X150128213Y-117010292D01*
X150239707Y-117121786D01*
X150239711Y-117121789D01*
X150370814Y-117209390D01*
X150370827Y-117209397D01*
X150516498Y-117269735D01*
X150516503Y-117269737D01*
X150671153Y-117300499D01*
X150671156Y-117300500D01*
X150671158Y-117300500D01*
X150828844Y-117300500D01*
X150828845Y-117300499D01*
X150983497Y-117269737D01*
X151129179Y-117209394D01*
X151260289Y-117121789D01*
X151371789Y-117010289D01*
X151459394Y-116879179D01*
X151519737Y-116733497D01*
X151550500Y-116578842D01*
X151550500Y-116421158D01*
X151550500Y-116421155D01*
X151550499Y-116421153D01*
X151519737Y-116266503D01*
X151505357Y-116231786D01*
X151459395Y-116120823D01*
X151459390Y-116120814D01*
X151371789Y-115989711D01*
X151371786Y-115989707D01*
X151260292Y-115878213D01*
X151260288Y-115878210D01*
X151129185Y-115790609D01*
X151129172Y-115790602D01*
X150983501Y-115730264D01*
X150983491Y-115730261D01*
X150828149Y-115699361D01*
X150766238Y-115666976D01*
X150764660Y-115665425D01*
X149213590Y-114114355D01*
X149213588Y-114114352D01*
X149094717Y-113995481D01*
X149094716Y-113995480D01*
X149007904Y-113945360D01*
X149007904Y-113945359D01*
X149007900Y-113945358D01*
X148957785Y-113916423D01*
X148805057Y-113875499D01*
X148646943Y-113875499D01*
X148639347Y-113875499D01*
X148639331Y-113875500D01*
X148585670Y-113875500D01*
X148585654Y-113875499D01*
X148578058Y-113875499D01*
X148419943Y-113875499D01*
X148411816Y-113875499D01*
X148411816Y-113872151D01*
X148358087Y-113863710D01*
X148323384Y-113839278D01*
X134886819Y-100402713D01*
X134853334Y-100341390D01*
X134850500Y-100315032D01*
X134850500Y-90300097D01*
X134870185Y-90233058D01*
X134886819Y-90212416D01*
X135056749Y-90042486D01*
X135265374Y-89833860D01*
X135282285Y-89824626D01*
X135296232Y-89811328D01*
X135312318Y-89808227D01*
X135326695Y-89800377D01*
X135345915Y-89801751D01*
X135364839Y-89798104D01*
X135380047Y-89804192D01*
G37*
%TD.AperFunction*%
%TA.AperFunction,NonConductor*%
G36*
X148658936Y-49770185D02*
G01*
X148704691Y-49822989D01*
X148714635Y-49892147D01*
X148685610Y-49955703D01*
X148653897Y-49981887D01*
X148588787Y-50019477D01*
X148588782Y-50019481D01*
X148476978Y-50131286D01*
X133621128Y-64987135D01*
X133559805Y-65020620D01*
X133490113Y-65015636D01*
X133486014Y-65014023D01*
X133364993Y-64963894D01*
X133137014Y-64902807D01*
X133137013Y-64902806D01*
X133137010Y-64902806D01*
X132903020Y-64872001D01*
X132903017Y-64872000D01*
X132903011Y-64872000D01*
X132666989Y-64872000D01*
X132666983Y-64872000D01*
X132666979Y-64872001D01*
X132432989Y-64902806D01*
X132205006Y-64963894D01*
X131986954Y-65054214D01*
X131986943Y-65054219D01*
X131782545Y-65172230D01*
X131595302Y-65315906D01*
X131595295Y-65315912D01*
X131428412Y-65482795D01*
X131428406Y-65482802D01*
X131284730Y-65670045D01*
X131166719Y-65874443D01*
X131166714Y-65874454D01*
X131076394Y-66092506D01*
X131015306Y-66320489D01*
X130984501Y-66554479D01*
X130984500Y-66554489D01*
X130984500Y-66790511D01*
X131015307Y-67024514D01*
X131043916Y-67131284D01*
X131076394Y-67252493D01*
X131166714Y-67470545D01*
X131166719Y-67470556D01*
X131194965Y-67519478D01*
X131284727Y-67674950D01*
X131284729Y-67674953D01*
X131284730Y-67674954D01*
X131428406Y-67862197D01*
X131428412Y-67862204D01*
X131595295Y-68029087D01*
X131595302Y-68029093D01*
X131611909Y-68041836D01*
X131782550Y-68172773D01*
X131913918Y-68248618D01*
X131986943Y-68290780D01*
X131986948Y-68290782D01*
X131986951Y-68290784D01*
X132205007Y-68381106D01*
X132432986Y-68442193D01*
X132666989Y-68473000D01*
X132666996Y-68473000D01*
X132903004Y-68473000D01*
X132903011Y-68473000D01*
X133137014Y-68442193D01*
X133364993Y-68381106D01*
X133583049Y-68290784D01*
X133787450Y-68172773D01*
X133974699Y-68029092D01*
X134141592Y-67862199D01*
X134285273Y-67674950D01*
X134403284Y-67470549D01*
X134493606Y-67252493D01*
X134554693Y-67024514D01*
X134585500Y-66790511D01*
X134585500Y-66554489D01*
X134554693Y-66320486D01*
X134493606Y-66092507D01*
X134443484Y-65971503D01*
X134436015Y-65902034D01*
X134467290Y-65839554D01*
X134470336Y-65836397D01*
X143614597Y-56692137D01*
X143675919Y-56658653D01*
X143745611Y-56663637D01*
X143801544Y-56705509D01*
X143825961Y-56770973D01*
X143811109Y-56839246D01*
X143805380Y-56848709D01*
X143790608Y-56870816D01*
X143790602Y-56870827D01*
X143730264Y-57016498D01*
X143730261Y-57016510D01*
X143699500Y-57171153D01*
X143699500Y-57328846D01*
X143730261Y-57483489D01*
X143730264Y-57483501D01*
X143790602Y-57629172D01*
X143790609Y-57629185D01*
X143878602Y-57760874D01*
X143899480Y-57827551D01*
X143899500Y-57829765D01*
X143899500Y-59449903D01*
X143879815Y-59516942D01*
X143863181Y-59537584D01*
X143037584Y-60363181D01*
X142976261Y-60396666D01*
X142949903Y-60399500D01*
X142920940Y-60399500D01*
X142880019Y-60410464D01*
X142880019Y-60410465D01*
X142844412Y-60420006D01*
X142768214Y-60440423D01*
X142768209Y-60440426D01*
X142631290Y-60519475D01*
X142631282Y-60519481D01*
X141019481Y-62131282D01*
X141019480Y-62131284D01*
X140978193Y-62202797D01*
X140969361Y-62218094D01*
X140969359Y-62218096D01*
X140940425Y-62268209D01*
X140940424Y-62268210D01*
X140940423Y-62268215D01*
X140899499Y-62420943D01*
X140899499Y-62420945D01*
X140899499Y-62589046D01*
X140899500Y-62589059D01*
X140899500Y-85038330D01*
X140899499Y-85038348D01*
X140899499Y-85204054D01*
X140899498Y-85204054D01*
X140940423Y-85356785D01*
X140951495Y-85375962D01*
X141019477Y-85493712D01*
X141019481Y-85493717D01*
X141138349Y-85612585D01*
X141138355Y-85612590D01*
X142867345Y-87341580D01*
X142900830Y-87402903D01*
X142895846Y-87472595D01*
X142886397Y-87492380D01*
X142873258Y-87514596D01*
X142873254Y-87514607D01*
X142827402Y-87672426D01*
X142827401Y-87672432D01*
X142824500Y-87709298D01*
X142824500Y-88140686D01*
X142824501Y-88140719D01*
X142824655Y-88142674D01*
X142824590Y-88142982D01*
X142824596Y-88143132D01*
X142824558Y-88143133D01*
X142810287Y-88211050D01*
X142788718Y-88240076D01*
X140963158Y-90065636D01*
X140942467Y-90076934D01*
X140924282Y-90091947D01*
X140912365Y-90093370D01*
X140901835Y-90099121D01*
X140878318Y-90097439D01*
X140854905Y-90100237D01*
X140844111Y-90094992D01*
X140832143Y-90094137D01*
X140813267Y-90080006D01*
X140792061Y-90069703D01*
X140780433Y-90055426D01*
X140776210Y-90052265D01*
X140769591Y-90042486D01*
X140769173Y-90041801D01*
X140693081Y-89913135D01*
X140687138Y-89907192D01*
X140679422Y-89894531D01*
X140674072Y-89874560D01*
X140664155Y-89856421D01*
X140665214Y-89841494D01*
X140661343Y-89827040D01*
X140667639Y-89807347D01*
X140669104Y-89786726D01*
X140679311Y-89770842D01*
X140682622Y-89760490D01*
X140689743Y-89754610D01*
X140689940Y-89754304D01*
X140688298Y-89753031D01*
X140693075Y-89746870D01*
X140693081Y-89746865D01*
X140776744Y-89605398D01*
X140822598Y-89447569D01*
X140825500Y-89410694D01*
X140825500Y-88979306D01*
X140822598Y-88942431D01*
X140810907Y-88902192D01*
X140776745Y-88784606D01*
X140776744Y-88784603D01*
X140776744Y-88784602D01*
X140693081Y-88643135D01*
X140693078Y-88643132D01*
X140688298Y-88636969D01*
X140690750Y-88635066D01*
X140664155Y-88586421D01*
X140669104Y-88516726D01*
X140689940Y-88484304D01*
X140688298Y-88483031D01*
X140693075Y-88476870D01*
X140693081Y-88476865D01*
X140776744Y-88335398D01*
X140822598Y-88177569D01*
X140825500Y-88140694D01*
X140825500Y-87709306D01*
X140822598Y-87672431D01*
X140822229Y-87671162D01*
X140776745Y-87514606D01*
X140776744Y-87514603D01*
X140776744Y-87514602D01*
X140693081Y-87373135D01*
X140693080Y-87373134D01*
X140693076Y-87373129D01*
X140576870Y-87256923D01*
X140576862Y-87256917D01*
X140435396Y-87173255D01*
X140435393Y-87173254D01*
X140277573Y-87127402D01*
X140277567Y-87127401D01*
X140240701Y-87124500D01*
X140240694Y-87124500D01*
X140074500Y-87124500D01*
X140007461Y-87104815D01*
X139961706Y-87052011D01*
X139950500Y-87000500D01*
X139950500Y-85675316D01*
X139959939Y-85627864D01*
X139999688Y-85531900D01*
X140019737Y-85483497D01*
X140050500Y-85328842D01*
X140050500Y-85171158D01*
X140050500Y-85171155D01*
X140050499Y-85171153D01*
X140025426Y-85045103D01*
X140019737Y-85016503D01*
X140013425Y-85001265D01*
X139959397Y-84870827D01*
X139959390Y-84870814D01*
X139871789Y-84739711D01*
X139871786Y-84739707D01*
X139760292Y-84628213D01*
X139760288Y-84628210D01*
X139629185Y-84540609D01*
X139629172Y-84540602D01*
X139483501Y-84480264D01*
X139483489Y-84480261D01*
X139328845Y-84449500D01*
X139328842Y-84449500D01*
X139171158Y-84449500D01*
X139171155Y-84449500D01*
X139016510Y-84480261D01*
X139016498Y-84480264D01*
X138870827Y-84540602D01*
X138870814Y-84540609D01*
X138739711Y-84628210D01*
X138739707Y-84628213D01*
X138628213Y-84739707D01*
X138628210Y-84739711D01*
X138540609Y-84870814D01*
X138540602Y-84870827D01*
X138480264Y-85016498D01*
X138480261Y-85016510D01*
X138449500Y-85171153D01*
X138449500Y-85328846D01*
X138480261Y-85483489D01*
X138480264Y-85483501D01*
X138540602Y-85629172D01*
X138540609Y-85629185D01*
X138628209Y-85760287D01*
X138628210Y-85760288D01*
X138628211Y-85760289D01*
X138713182Y-85845260D01*
X138746666Y-85906581D01*
X138749500Y-85932940D01*
X138749500Y-87000500D01*
X138729815Y-87067539D01*
X138677011Y-87113294D01*
X138625500Y-87124500D01*
X138459298Y-87124500D01*
X138422432Y-87127401D01*
X138422426Y-87127402D01*
X138264606Y-87173254D01*
X138264603Y-87173255D01*
X138123137Y-87256917D01*
X138123129Y-87256923D01*
X138091874Y-87288180D01*
X138030552Y-87321666D01*
X138004192Y-87324500D01*
X136245943Y-87324500D01*
X136093214Y-87365423D01*
X136088379Y-87368215D01*
X136079869Y-87373129D01*
X136079860Y-87373134D01*
X136079857Y-87373135D01*
X135956290Y-87444475D01*
X135956282Y-87444481D01*
X133769481Y-89631282D01*
X133769477Y-89631287D01*
X133722154Y-89713255D01*
X133722154Y-89713256D01*
X133690423Y-89768214D01*
X133679340Y-89809575D01*
X133649499Y-89920943D01*
X133649499Y-89920945D01*
X133649499Y-90089046D01*
X133649500Y-90089059D01*
X133649500Y-97996560D01*
X133629815Y-98063599D01*
X133577011Y-98109354D01*
X133507853Y-98119298D01*
X133444297Y-98090273D01*
X133422398Y-98065451D01*
X133371789Y-97989711D01*
X133371786Y-97989707D01*
X133260292Y-97878213D01*
X133260288Y-97878210D01*
X133129185Y-97790609D01*
X133129172Y-97790602D01*
X132983501Y-97730264D01*
X132983489Y-97730261D01*
X132828845Y-97699500D01*
X132828842Y-97699500D01*
X132671158Y-97699500D01*
X132671155Y-97699500D01*
X132516510Y-97730261D01*
X132516498Y-97730264D01*
X132370827Y-97790602D01*
X132370814Y-97790609D01*
X132239711Y-97878210D01*
X132239707Y-97878213D01*
X132128213Y-97989707D01*
X132128210Y-97989711D01*
X132040609Y-98120814D01*
X132040602Y-98120827D01*
X131980264Y-98266498D01*
X131980261Y-98266510D01*
X131949500Y-98421153D01*
X131949500Y-98578846D01*
X131980261Y-98733489D01*
X131980264Y-98733501D01*
X132040602Y-98879172D01*
X132040609Y-98879185D01*
X132128602Y-99010874D01*
X132149480Y-99077551D01*
X132149500Y-99079765D01*
X132149500Y-110409902D01*
X132129815Y-110476941D01*
X132113181Y-110497583D01*
X129070830Y-113539933D01*
X129009507Y-113573418D01*
X128963751Y-113574725D01*
X128804486Y-113549500D01*
X128804481Y-113549500D01*
X128615519Y-113549500D01*
X128615514Y-113549500D01*
X128428881Y-113579059D01*
X128249163Y-113637454D01*
X128080800Y-113723240D01*
X127993579Y-113786610D01*
X127927927Y-113834310D01*
X127927925Y-113834312D01*
X127927924Y-113834312D01*
X127794312Y-113967924D01*
X127794312Y-113967925D01*
X127794310Y-113967927D01*
X127774291Y-113995481D01*
X127683240Y-114120800D01*
X127597454Y-114289163D01*
X127539059Y-114468881D01*
X127509500Y-114655513D01*
X127509500Y-114844486D01*
X127539059Y-115031118D01*
X127597454Y-115210836D01*
X127657582Y-115328842D01*
X127683240Y-115379199D01*
X127794310Y-115532073D01*
X127927927Y-115665690D01*
X128080801Y-115776760D01*
X128114150Y-115793752D01*
X128249163Y-115862545D01*
X128249165Y-115862545D01*
X128249168Y-115862547D01*
X128297377Y-115878211D01*
X128428881Y-115920940D01*
X128615514Y-115950500D01*
X128615519Y-115950500D01*
X128804486Y-115950500D01*
X128991118Y-115920940D01*
X129170832Y-115862547D01*
X129339199Y-115776760D01*
X129492073Y-115665690D01*
X129625690Y-115532073D01*
X129736760Y-115379199D01*
X129822547Y-115210832D01*
X129880940Y-115031118D01*
X129898356Y-114921158D01*
X129910500Y-114844486D01*
X129910500Y-114660137D01*
X129910500Y-114655519D01*
X129910499Y-114655513D01*
X132589500Y-114655513D01*
X132589500Y-114844486D01*
X132619059Y-115031118D01*
X132677454Y-115210836D01*
X132737582Y-115328842D01*
X132763240Y-115379199D01*
X132874310Y-115532073D01*
X133007927Y-115665690D01*
X133138386Y-115760474D01*
X133181051Y-115815803D01*
X133189500Y-115860791D01*
X133189500Y-119909902D01*
X133169815Y-119976941D01*
X133153181Y-119997583D01*
X132769481Y-120381282D01*
X132769475Y-120381290D01*
X132734551Y-120441782D01*
X132734551Y-120441784D01*
X132690423Y-120518214D01*
X132690423Y-120518215D01*
X132649499Y-120670943D01*
X132649499Y-120670945D01*
X132649499Y-120839046D01*
X132649500Y-120839059D01*
X132649500Y-120913330D01*
X132649499Y-120913348D01*
X132649499Y-121079054D01*
X132649498Y-121079054D01*
X132690423Y-121231785D01*
X132719358Y-121281900D01*
X132719359Y-121281904D01*
X132719360Y-121281904D01*
X132769479Y-121368714D01*
X132769481Y-121368717D01*
X132888349Y-121487585D01*
X132888355Y-121487590D01*
X134015139Y-122614374D01*
X134015149Y-122614385D01*
X134019479Y-122618715D01*
X134019480Y-122618716D01*
X134131284Y-122730520D01*
X134218095Y-122780639D01*
X134218097Y-122780641D01*
X134256151Y-122802611D01*
X134268215Y-122809577D01*
X134420943Y-122850501D01*
X134420946Y-122850501D01*
X134586653Y-122850501D01*
X134586669Y-122850500D01*
X166413331Y-122850500D01*
X166413347Y-122850501D01*
X166420943Y-122850501D01*
X166579054Y-122850501D01*
X166579057Y-122850501D01*
X166731785Y-122809577D01*
X166781904Y-122780639D01*
X166868716Y-122730520D01*
X166980520Y-122618716D01*
X166980520Y-122618714D01*
X166990728Y-122608507D01*
X166990729Y-122608504D01*
X174837821Y-114761413D01*
X174899142Y-114727930D01*
X174968834Y-114732914D01*
X175024767Y-114774786D01*
X175049184Y-114840250D01*
X175049500Y-114849096D01*
X175049500Y-115549903D01*
X175040854Y-115579345D01*
X175034331Y-115609332D01*
X175030577Y-115614346D01*
X175029815Y-115616942D01*
X175013184Y-115637580D01*
X174985340Y-115665425D01*
X174985338Y-115665427D01*
X174924014Y-115698911D01*
X174921850Y-115699361D01*
X174766508Y-115730261D01*
X174766498Y-115730264D01*
X174620827Y-115790602D01*
X174620814Y-115790609D01*
X174489711Y-115878210D01*
X174489707Y-115878213D01*
X174378213Y-115989707D01*
X174378210Y-115989711D01*
X174290609Y-116120814D01*
X174290605Y-116120823D01*
X174230264Y-116266498D01*
X174230261Y-116266510D01*
X174199500Y-116421153D01*
X174199500Y-116578846D01*
X174230261Y-116733489D01*
X174230264Y-116733501D01*
X174290602Y-116879172D01*
X174290609Y-116879185D01*
X174378210Y-117010288D01*
X174378213Y-117010292D01*
X174489707Y-117121786D01*
X174489711Y-117121789D01*
X174620814Y-117209390D01*
X174620827Y-117209397D01*
X174766498Y-117269735D01*
X174766503Y-117269737D01*
X174921153Y-117300499D01*
X174921156Y-117300500D01*
X174921158Y-117300500D01*
X175078844Y-117300500D01*
X175078845Y-117300499D01*
X175233497Y-117269737D01*
X175379179Y-117209394D01*
X175510289Y-117121789D01*
X175621789Y-117010289D01*
X175709394Y-116879179D01*
X175769737Y-116733497D01*
X175789113Y-116636085D01*
X175800638Y-116578150D01*
X175809402Y-116561393D01*
X175813423Y-116542914D01*
X175832167Y-116517875D01*
X175833023Y-116516239D01*
X175834527Y-116514707D01*
X176008506Y-116340727D01*
X176008511Y-116340724D01*
X176018714Y-116330520D01*
X176018716Y-116330520D01*
X176130520Y-116218716D01*
X176187039Y-116120821D01*
X176209577Y-116081785D01*
X176250501Y-115929057D01*
X176250501Y-115770943D01*
X176250501Y-115763348D01*
X176250500Y-115763330D01*
X176250500Y-111810391D01*
X176270185Y-111743352D01*
X176322989Y-111697597D01*
X176392147Y-111687653D01*
X176415577Y-111693633D01*
X176417516Y-111694091D01*
X176424444Y-111694835D01*
X176477127Y-111700500D01*
X177572872Y-111700499D01*
X177632483Y-111694091D01*
X177767331Y-111643796D01*
X177882546Y-111557546D01*
X177968796Y-111442331D01*
X178019091Y-111307483D01*
X178025500Y-111247873D01*
X178025499Y-109802128D01*
X178019091Y-109742517D01*
X178010070Y-109718333D01*
X178004326Y-109652413D01*
X178006292Y-109641795D01*
X178019091Y-109607483D01*
X178025500Y-109547873D01*
X178025500Y-109538110D01*
X178027574Y-109526914D01*
X178038421Y-109505493D01*
X178045185Y-109482461D01*
X178053918Y-109474893D01*
X178059141Y-109464581D01*
X178079847Y-109452425D01*
X178097989Y-109436706D01*
X178111710Y-109433720D01*
X178119395Y-109429210D01*
X178130402Y-109429654D01*
X178149500Y-109425500D01*
X178524903Y-109425500D01*
X178591942Y-109445185D01*
X178612584Y-109461819D01*
X178613181Y-109462416D01*
X178646666Y-109523739D01*
X178649500Y-109550097D01*
X178649500Y-114670234D01*
X178629815Y-114737273D01*
X178628602Y-114739125D01*
X178540609Y-114870814D01*
X178540602Y-114870827D01*
X178480264Y-115016498D01*
X178480261Y-115016510D01*
X178449500Y-115171153D01*
X178449500Y-115328846D01*
X178480261Y-115483489D01*
X178480264Y-115483501D01*
X178540602Y-115629172D01*
X178540609Y-115629185D01*
X178628210Y-115760288D01*
X178628213Y-115760292D01*
X178739707Y-115871786D01*
X178739711Y-115871789D01*
X178870814Y-115959390D01*
X178870827Y-115959397D01*
X178944013Y-115989711D01*
X179016503Y-116019737D01*
X179137269Y-116043759D01*
X179171153Y-116050499D01*
X179171156Y-116050500D01*
X179171158Y-116050500D01*
X179328844Y-116050500D01*
X179328845Y-116050499D01*
X179483497Y-116019737D01*
X179555987Y-115989711D01*
X179628048Y-115959863D01*
X179697517Y-115952394D01*
X179759996Y-115983669D01*
X179795648Y-116043759D01*
X179799500Y-116074424D01*
X179799500Y-118549902D01*
X179779815Y-118616941D01*
X179763181Y-118637583D01*
X179519481Y-118881282D01*
X179519479Y-118881285D01*
X179469361Y-118968094D01*
X179469359Y-118968096D01*
X179440425Y-119018209D01*
X179440424Y-119018210D01*
X179440423Y-119018215D01*
X179399499Y-119170943D01*
X179399499Y-119170945D01*
X179399499Y-119329054D01*
X179399498Y-119329054D01*
X179440423Y-119481785D01*
X179469358Y-119531900D01*
X179469359Y-119531904D01*
X179469360Y-119531904D01*
X179513582Y-119608501D01*
X179519479Y-119618714D01*
X179519481Y-119618717D01*
X179631284Y-119730520D01*
X179718095Y-119780639D01*
X179718097Y-119780641D01*
X179756151Y-119802611D01*
X179768215Y-119809577D01*
X179920943Y-119850501D01*
X179920946Y-119850501D01*
X180086653Y-119850501D01*
X180086669Y-119850500D01*
X220413331Y-119850500D01*
X220413347Y-119850501D01*
X220420943Y-119850501D01*
X220579054Y-119850501D01*
X220579057Y-119850501D01*
X220731785Y-119809577D01*
X220781904Y-119780639D01*
X220868716Y-119730520D01*
X220980520Y-119618716D01*
X220980520Y-119618714D01*
X220990728Y-119608507D01*
X220990730Y-119608504D01*
X224108506Y-116490728D01*
X224108511Y-116490724D01*
X224118714Y-116480520D01*
X224118716Y-116480520D01*
X224230520Y-116368716D01*
X224289532Y-116266503D01*
X224309577Y-116231785D01*
X224350500Y-116079057D01*
X224350500Y-115920943D01*
X224350500Y-67920943D01*
X224309577Y-67768216D01*
X224255733Y-67674954D01*
X224230524Y-67631290D01*
X224230521Y-67631286D01*
X224230520Y-67631284D01*
X224118716Y-67519480D01*
X224118715Y-67519479D01*
X224114385Y-67515149D01*
X224114374Y-67515139D01*
X222362590Y-65763355D01*
X222362588Y-65763352D01*
X222243717Y-65644481D01*
X222243716Y-65644480D01*
X222156904Y-65594360D01*
X222156904Y-65594359D01*
X222156900Y-65594358D01*
X222106785Y-65565423D01*
X221954057Y-65524499D01*
X221795943Y-65524499D01*
X221788347Y-65524499D01*
X221788331Y-65524500D01*
X205675098Y-65524500D01*
X205608059Y-65504815D01*
X205587417Y-65488181D01*
X203306819Y-63207583D01*
X203273334Y-63146260D01*
X203270500Y-63119902D01*
X203270500Y-62224499D01*
X203290185Y-62157460D01*
X203342989Y-62111705D01*
X203394500Y-62100499D01*
X203817871Y-62100499D01*
X203817872Y-62100499D01*
X203877483Y-62094091D01*
X204012331Y-62043796D01*
X204127546Y-61957546D01*
X204213796Y-61842331D01*
X204264091Y-61707483D01*
X204270500Y-61647873D01*
X204270499Y-59352128D01*
X204264091Y-59292517D01*
X204263672Y-59291394D01*
X204213797Y-59157671D01*
X204213793Y-59157664D01*
X204127547Y-59042455D01*
X204127544Y-59042452D01*
X204012335Y-58956206D01*
X204012328Y-58956202D01*
X203877482Y-58905908D01*
X203877483Y-58905908D01*
X203817883Y-58899501D01*
X203817881Y-58899500D01*
X203817873Y-58899500D01*
X203817864Y-58899500D01*
X201522129Y-58899500D01*
X201522123Y-58899501D01*
X201462516Y-58905908D01*
X201327671Y-58956202D01*
X201327664Y-58956206D01*
X201212455Y-59042452D01*
X201212452Y-59042455D01*
X201126206Y-59157664D01*
X201126202Y-59157671D01*
X201075908Y-59292517D01*
X201069501Y-59352116D01*
X201069501Y-59352123D01*
X201069500Y-59352135D01*
X201069500Y-61647870D01*
X201069501Y-61647876D01*
X201075908Y-61707483D01*
X201126202Y-61842328D01*
X201126206Y-61842335D01*
X201212452Y-61957544D01*
X201212455Y-61957547D01*
X201327664Y-62043793D01*
X201327671Y-62043797D01*
X201372618Y-62060561D01*
X201462517Y-62094091D01*
X201522127Y-62100500D01*
X201945500Y-62100499D01*
X202012539Y-62120183D01*
X202058294Y-62172987D01*
X202069500Y-62224499D01*
X202069500Y-63333330D01*
X202069499Y-63333348D01*
X202069499Y-63499054D01*
X202069498Y-63499054D01*
X202110423Y-63651785D01*
X202139358Y-63701900D01*
X202139359Y-63701904D01*
X202139360Y-63701904D01*
X202189479Y-63788714D01*
X202189481Y-63788717D01*
X202308349Y-63907585D01*
X202308354Y-63907589D01*
X205006284Y-66605520D01*
X205006286Y-66605521D01*
X205006290Y-66605524D01*
X205143209Y-66684573D01*
X205143216Y-66684577D01*
X205295943Y-66725501D01*
X205295945Y-66725501D01*
X205461654Y-66725501D01*
X205461670Y-66725500D01*
X221574903Y-66725500D01*
X221641942Y-66745185D01*
X221662584Y-66761819D01*
X223113181Y-68212416D01*
X223146666Y-68273739D01*
X223149500Y-68300097D01*
X223149500Y-115699903D01*
X223129815Y-115766942D01*
X223113181Y-115787584D01*
X220287584Y-118613181D01*
X220226261Y-118646666D01*
X220199903Y-118649500D01*
X181124500Y-118649500D01*
X181057461Y-118629815D01*
X181011706Y-118577011D01*
X181000500Y-118525500D01*
X181000500Y-114921153D01*
X181699500Y-114921153D01*
X181699500Y-115078846D01*
X181730261Y-115233489D01*
X181730264Y-115233501D01*
X181790602Y-115379172D01*
X181790609Y-115379185D01*
X181878210Y-115510288D01*
X181878213Y-115510292D01*
X181989707Y-115621786D01*
X181989711Y-115621789D01*
X182120814Y-115709390D01*
X182120827Y-115709397D01*
X182251035Y-115763330D01*
X182266503Y-115769737D01*
X182387234Y-115793752D01*
X182421153Y-115800499D01*
X182421156Y-115800500D01*
X182421158Y-115800500D01*
X182578844Y-115800500D01*
X182578845Y-115800499D01*
X182733497Y-115769737D01*
X182879179Y-115709394D01*
X183010289Y-115621789D01*
X183121789Y-115510289D01*
X183209394Y-115379179D01*
X183216632Y-115361706D01*
X183269735Y-115233501D01*
X183269737Y-115233497D01*
X183300500Y-115078842D01*
X183300500Y-114921158D01*
X183300500Y-114921155D01*
X183300499Y-114921153D01*
X183284406Y-114840250D01*
X183269737Y-114766503D01*
X183269735Y-114766498D01*
X183209397Y-114620827D01*
X183209390Y-114620814D01*
X183121398Y-114489125D01*
X183100520Y-114422447D01*
X183100500Y-114420234D01*
X183100500Y-102050097D01*
X183120185Y-101983058D01*
X183136819Y-101962416D01*
X184962417Y-100136819D01*
X185023740Y-100103334D01*
X185050098Y-100100500D01*
X202545932Y-100100500D01*
X202612971Y-100120185D01*
X202656416Y-100168203D01*
X202716657Y-100286433D01*
X202855483Y-100477510D01*
X203022490Y-100644517D01*
X203213567Y-100783343D01*
X203312991Y-100834002D01*
X203424003Y-100890566D01*
X203424005Y-100890566D01*
X203424008Y-100890568D01*
X203544412Y-100929689D01*
X203648631Y-100963553D01*
X203881903Y-101000500D01*
X203881908Y-101000500D01*
X204118097Y-101000500D01*
X204351368Y-100963553D01*
X204575992Y-100890568D01*
X204786433Y-100783343D01*
X204977510Y-100644517D01*
X205144517Y-100477510D01*
X205283343Y-100286433D01*
X205390568Y-100075992D01*
X205463553Y-99851368D01*
X205500500Y-99618097D01*
X205500500Y-99381902D01*
X205463553Y-99148631D01*
X205419394Y-99012726D01*
X205390568Y-98924008D01*
X205390566Y-98924005D01*
X205390566Y-98924003D01*
X205334002Y-98812991D01*
X205283343Y-98713567D01*
X205144517Y-98522490D01*
X204977510Y-98355483D01*
X204786433Y-98216657D01*
X204786429Y-98216655D01*
X204575996Y-98109433D01*
X204351368Y-98036446D01*
X204118097Y-97999500D01*
X204118092Y-97999500D01*
X203881908Y-97999500D01*
X203881903Y-97999500D01*
X203648631Y-98036446D01*
X203424003Y-98109433D01*
X203213566Y-98216657D01*
X203144967Y-98266498D01*
X203022490Y-98355483D01*
X203022488Y-98355485D01*
X203022487Y-98355485D01*
X202855485Y-98522487D01*
X202716657Y-98713566D01*
X202656417Y-98831795D01*
X202608442Y-98882591D01*
X202545932Y-98899500D01*
X184836670Y-98899500D01*
X184836654Y-98899499D01*
X184829058Y-98899499D01*
X184670943Y-98899499D01*
X184594579Y-98919961D01*
X184518214Y-98940423D01*
X184518209Y-98940426D01*
X184381290Y-99019475D01*
X184381282Y-99019481D01*
X182019481Y-101381282D01*
X182019479Y-101381285D01*
X181969361Y-101468094D01*
X181969359Y-101468096D01*
X181940425Y-101518209D01*
X181940424Y-101518210D01*
X181940423Y-101518215D01*
X181899499Y-101670943D01*
X181899499Y-101670945D01*
X181899499Y-101839046D01*
X181899500Y-101839059D01*
X181899500Y-114420234D01*
X181879815Y-114487273D01*
X181878602Y-114489125D01*
X181790609Y-114620814D01*
X181790602Y-114620827D01*
X181730264Y-114766498D01*
X181730261Y-114766510D01*
X181699500Y-114921153D01*
X181000500Y-114921153D01*
X181000500Y-112339141D01*
X181020185Y-112272102D01*
X181072989Y-112226347D01*
X181081149Y-112222966D01*
X181092331Y-112218796D01*
X181207546Y-112132546D01*
X181293796Y-112017331D01*
X181344091Y-111882483D01*
X181350500Y-111822873D01*
X181350499Y-109877128D01*
X181344091Y-109817517D01*
X181307096Y-109718330D01*
X181302113Y-109648642D01*
X181307092Y-109631680D01*
X181344091Y-109532483D01*
X181350500Y-109472873D01*
X181350499Y-107527128D01*
X181344091Y-107467517D01*
X181293796Y-107332669D01*
X181293795Y-107332668D01*
X181293793Y-107332664D01*
X181207547Y-107217455D01*
X181207544Y-107217452D01*
X181092335Y-107131206D01*
X181092328Y-107131202D01*
X180957482Y-107080908D01*
X180957483Y-107080908D01*
X180897883Y-107074501D01*
X180897881Y-107074500D01*
X180897873Y-107074500D01*
X180897864Y-107074500D01*
X179902129Y-107074500D01*
X179902123Y-107074501D01*
X179842516Y-107080908D01*
X179707671Y-107131202D01*
X179707664Y-107131206D01*
X179585355Y-107222768D01*
X179583319Y-107220048D01*
X179536404Y-107245666D01*
X179510046Y-107248500D01*
X174889954Y-107248500D01*
X174822915Y-107228815D01*
X174814933Y-107222383D01*
X174814645Y-107222768D01*
X174692335Y-107131206D01*
X174692328Y-107131202D01*
X174557482Y-107080908D01*
X174557483Y-107080908D01*
X174497883Y-107074501D01*
X174497881Y-107074500D01*
X174497873Y-107074500D01*
X174497864Y-107074500D01*
X173502129Y-107074500D01*
X173502123Y-107074501D01*
X173442516Y-107080908D01*
X173307671Y-107131202D01*
X173307664Y-107131206D01*
X173192455Y-107217452D01*
X173192452Y-107217455D01*
X173106206Y-107332664D01*
X173106202Y-107332671D01*
X173055908Y-107467517D01*
X173049501Y-107527116D01*
X173049501Y-107527123D01*
X173049500Y-107527135D01*
X173049500Y-109472870D01*
X173049501Y-109472876D01*
X173055909Y-109532484D01*
X173092901Y-109631668D01*
X173097885Y-109701360D01*
X173092901Y-109718332D01*
X173055909Y-109817514D01*
X173055908Y-109817516D01*
X173049501Y-109877116D01*
X173049501Y-109877123D01*
X173049500Y-109877135D01*
X173049500Y-111822870D01*
X173049501Y-111822876D01*
X173055908Y-111882483D01*
X173106202Y-112017328D01*
X173106206Y-112017335D01*
X173192452Y-112132544D01*
X173192455Y-112132547D01*
X173307664Y-112218793D01*
X173307671Y-112218797D01*
X173442517Y-112269091D01*
X173442516Y-112269091D01*
X173449444Y-112269835D01*
X173502127Y-112275500D01*
X174299500Y-112275499D01*
X174366539Y-112295183D01*
X174412294Y-112347987D01*
X174423500Y-112399499D01*
X174423500Y-113425903D01*
X174403815Y-113492942D01*
X174387181Y-113513584D01*
X166287584Y-121613181D01*
X166226261Y-121646666D01*
X166199903Y-121649500D01*
X134800097Y-121649500D01*
X134733058Y-121629815D01*
X134712416Y-121613181D01*
X134061915Y-120962680D01*
X134057576Y-120954734D01*
X134050329Y-120949309D01*
X134041094Y-120924549D01*
X134028430Y-120901357D01*
X134029075Y-120892327D01*
X134025912Y-120883845D01*
X134031528Y-120858024D01*
X134033414Y-120831665D01*
X134039232Y-120822611D01*
X134040764Y-120815572D01*
X134061910Y-120787324D01*
X134158713Y-120690521D01*
X134158716Y-120690520D01*
X134270520Y-120578716D01*
X134320639Y-120491904D01*
X134349577Y-120441785D01*
X134390500Y-120289058D01*
X134390500Y-120130943D01*
X134390500Y-115860791D01*
X134410185Y-115793752D01*
X134441612Y-115760475D01*
X134572073Y-115665690D01*
X134705690Y-115532073D01*
X134816760Y-115379199D01*
X134902547Y-115210832D01*
X134960940Y-115031118D01*
X134978356Y-114921158D01*
X134990500Y-114844486D01*
X134990500Y-114655513D01*
X134960940Y-114468881D01*
X134902545Y-114289163D01*
X134831383Y-114149500D01*
X134816760Y-114120801D01*
X134705690Y-113967927D01*
X134572073Y-113834310D01*
X134419199Y-113723240D01*
X134250836Y-113637454D01*
X134071118Y-113579059D01*
X133884486Y-113549500D01*
X133884481Y-113549500D01*
X133695519Y-113549500D01*
X133695514Y-113549500D01*
X133508881Y-113579059D01*
X133329163Y-113637454D01*
X133160800Y-113723240D01*
X133073579Y-113786610D01*
X133007927Y-113834310D01*
X133007925Y-113834312D01*
X133007924Y-113834312D01*
X132874312Y-113967924D01*
X132874312Y-113967925D01*
X132874310Y-113967927D01*
X132854291Y-113995481D01*
X132763240Y-114120800D01*
X132677454Y-114289163D01*
X132619059Y-114468881D01*
X132589500Y-114655513D01*
X129910499Y-114655513D01*
X129885190Y-114495713D01*
X129889784Y-114461343D01*
X129894228Y-114426953D01*
X129894418Y-114426674D01*
X129894447Y-114426459D01*
X129895056Y-114425741D01*
X129920063Y-114389170D01*
X133230520Y-111078716D01*
X133309577Y-110941785D01*
X133350501Y-110789057D01*
X133350501Y-110630942D01*
X133350501Y-110623347D01*
X133350500Y-110623329D01*
X133350500Y-99079765D01*
X133355828Y-99061619D01*
X133356166Y-99042711D01*
X133369665Y-99014495D01*
X133370185Y-99012726D01*
X133371398Y-99010874D01*
X133422398Y-98934548D01*
X133476011Y-98889743D01*
X133545336Y-98881036D01*
X133608363Y-98911191D01*
X133645082Y-98970634D01*
X133649500Y-99003439D01*
X133649500Y-100528460D01*
X133649499Y-100528478D01*
X133649499Y-100694184D01*
X133649498Y-100694184D01*
X133690423Y-100846916D01*
X133690424Y-100846917D01*
X133715626Y-100890568D01*
X133769481Y-100983847D01*
X133888349Y-101102715D01*
X133888355Y-101102720D01*
X146723454Y-113937819D01*
X146756939Y-113999142D01*
X146751955Y-114068834D01*
X146710083Y-114124767D01*
X146644619Y-114149184D01*
X146635773Y-114149500D01*
X144670940Y-114149500D01*
X144630019Y-114160464D01*
X144630019Y-114160465D01*
X144592751Y-114170451D01*
X144518214Y-114190423D01*
X144518209Y-114190426D01*
X144381290Y-114269475D01*
X144381282Y-114269481D01*
X144019481Y-114631282D01*
X144019480Y-114631284D01*
X143975313Y-114707784D01*
X143940423Y-114768215D01*
X143899499Y-114920943D01*
X143899499Y-114920945D01*
X143899499Y-115089046D01*
X143899500Y-115089059D01*
X143899500Y-118913330D01*
X143899499Y-118913348D01*
X143899499Y-119079054D01*
X143899498Y-119079054D01*
X143940424Y-119231789D01*
X143940425Y-119231790D01*
X143961455Y-119268214D01*
X143961456Y-119268216D01*
X144019475Y-119368709D01*
X144019479Y-119368714D01*
X144019480Y-119368716D01*
X144131284Y-119480520D01*
X144131285Y-119480521D01*
X144631284Y-119980520D01*
X144631286Y-119980521D01*
X144631290Y-119980524D01*
X144768209Y-120059573D01*
X144768216Y-120059577D01*
X144920943Y-120100501D01*
X144920945Y-120100501D01*
X145086654Y-120100501D01*
X145086670Y-120100500D01*
X151663331Y-120100500D01*
X151663347Y-120100501D01*
X151670943Y-120100501D01*
X151829054Y-120100501D01*
X151829057Y-120100501D01*
X151981785Y-120059577D01*
X152031904Y-120030639D01*
X152118716Y-119980520D01*
X152230520Y-119868716D01*
X152230520Y-119868714D01*
X152240728Y-119858507D01*
X152240729Y-119858504D01*
X153230520Y-118868716D01*
X153309577Y-118731784D01*
X153350501Y-118579057D01*
X153350501Y-118420942D01*
X153350501Y-118413347D01*
X153350500Y-118413329D01*
X153350500Y-97839059D01*
X153350501Y-97839046D01*
X153350501Y-97670945D01*
X153350501Y-97670943D01*
X153309577Y-97518215D01*
X153280639Y-97468095D01*
X153230520Y-97381284D01*
X153118716Y-97269480D01*
X153118715Y-97269479D01*
X153114385Y-97265149D01*
X153114374Y-97265139D01*
X151987590Y-96138355D01*
X151987588Y-96138352D01*
X151868717Y-96019481D01*
X151868716Y-96019480D01*
X151781904Y-95969360D01*
X151781904Y-95969359D01*
X151781900Y-95969358D01*
X151731785Y-95940423D01*
X151579057Y-95899499D01*
X151420943Y-95899499D01*
X151413347Y-95899499D01*
X151413331Y-95899500D01*
X147749099Y-95899500D01*
X147727855Y-95893262D01*
X147705768Y-95891683D01*
X147694982Y-95883609D01*
X147682060Y-95879815D01*
X147667562Y-95863083D01*
X147649834Y-95849813D01*
X147645125Y-95837190D01*
X147636305Y-95827011D01*
X147633153Y-95805095D01*
X147625415Y-95784349D01*
X147628278Y-95771185D01*
X147626361Y-95757853D01*
X147635558Y-95737712D01*
X147640265Y-95716076D01*
X147653536Y-95698346D01*
X147655386Y-95694297D01*
X147661416Y-95687821D01*
X147661417Y-95687819D01*
X147730520Y-95618716D01*
X147730521Y-95618713D01*
X148730520Y-94618716D01*
X148809577Y-94481784D01*
X148850501Y-94329057D01*
X148850501Y-94170942D01*
X148850501Y-94163339D01*
X148850500Y-94163329D01*
X148850500Y-92499097D01*
X148870185Y-92432058D01*
X148922989Y-92386303D01*
X148992147Y-92376359D01*
X149055703Y-92405384D01*
X149062176Y-92411411D01*
X149384261Y-92733497D01*
X149553440Y-92902676D01*
X149568861Y-92921466D01*
X149628210Y-93010288D01*
X149628213Y-93010292D01*
X149739707Y-93121786D01*
X149739711Y-93121789D01*
X149870814Y-93209390D01*
X149870827Y-93209397D01*
X149944013Y-93239711D01*
X150016503Y-93269737D01*
X150171153Y-93300499D01*
X150171156Y-93300500D01*
X150171158Y-93300500D01*
X150328844Y-93300500D01*
X150328845Y-93300499D01*
X150483497Y-93269737D01*
X150629179Y-93209394D01*
X150760289Y-93121789D01*
X150871789Y-93010289D01*
X150959394Y-92879179D01*
X151019737Y-92733497D01*
X151034957Y-92656977D01*
X151067341Y-92595070D01*
X151128057Y-92560496D01*
X151197826Y-92564235D01*
X151244255Y-92593491D01*
X155113181Y-96462416D01*
X155146666Y-96523739D01*
X155149500Y-96550097D01*
X155149500Y-97920943D01*
X155149500Y-98079057D01*
X155157374Y-98108441D01*
X155190423Y-98231783D01*
X155190426Y-98231790D01*
X155269475Y-98368709D01*
X155269478Y-98368713D01*
X155269480Y-98368716D01*
X155381284Y-98480520D01*
X155381286Y-98480521D01*
X155381290Y-98480524D01*
X155518209Y-98559573D01*
X155518216Y-98559577D01*
X155670943Y-98600500D01*
X191913331Y-98600500D01*
X191913347Y-98600501D01*
X191920943Y-98600501D01*
X192079054Y-98600501D01*
X192079057Y-98600501D01*
X192231785Y-98559577D01*
X192296021Y-98522490D01*
X192368716Y-98480520D01*
X192480520Y-98368716D01*
X192480520Y-98368714D01*
X192490724Y-98358511D01*
X192490728Y-98358506D01*
X197928081Y-92921153D01*
X202199500Y-92921153D01*
X202199500Y-93078846D01*
X202230261Y-93233489D01*
X202230264Y-93233501D01*
X202290602Y-93379172D01*
X202290609Y-93379185D01*
X202378210Y-93510288D01*
X202378213Y-93510292D01*
X202489707Y-93621786D01*
X202489711Y-93621789D01*
X202620814Y-93709390D01*
X202620827Y-93709397D01*
X202739951Y-93758739D01*
X202766503Y-93769737D01*
X202921153Y-93800499D01*
X202921156Y-93800500D01*
X202921158Y-93800500D01*
X203078844Y-93800500D01*
X203078845Y-93800499D01*
X203233497Y-93769737D01*
X203379179Y-93709394D01*
X203397105Y-93697416D01*
X203510875Y-93621398D01*
X203577553Y-93600520D01*
X203579766Y-93600500D01*
X212449903Y-93600500D01*
X212516942Y-93620185D01*
X212537584Y-93636819D01*
X213385268Y-94484503D01*
X213418753Y-94545826D01*
X213417362Y-94604277D01*
X213399499Y-94670943D01*
X213399499Y-94839046D01*
X213399500Y-94839059D01*
X213399500Y-98045931D01*
X213379815Y-98112970D01*
X213331796Y-98156415D01*
X213213568Y-98216655D01*
X213144950Y-98266510D01*
X213022490Y-98355483D01*
X213022488Y-98355485D01*
X213022487Y-98355485D01*
X212855485Y-98522487D01*
X212716657Y-98713566D01*
X212609433Y-98924003D01*
X212536446Y-99148631D01*
X212499500Y-99381902D01*
X212499500Y-99618097D01*
X212536446Y-99851368D01*
X212609433Y-100075996D01*
X212716657Y-100286433D01*
X212855483Y-100477510D01*
X213022490Y-100644517D01*
X213213567Y-100783343D01*
X213312991Y-100834002D01*
X213424003Y-100890566D01*
X213424005Y-100890566D01*
X213424008Y-100890568D01*
X213544412Y-100929689D01*
X213648631Y-100963553D01*
X213881903Y-101000500D01*
X213881908Y-101000500D01*
X214118097Y-101000500D01*
X214351368Y-100963553D01*
X214575992Y-100890568D01*
X214786433Y-100783343D01*
X214977510Y-100644517D01*
X215144517Y-100477510D01*
X215283343Y-100286433D01*
X215390568Y-100075992D01*
X215463553Y-99851368D01*
X215500500Y-99618097D01*
X215500500Y-99381902D01*
X215463553Y-99148631D01*
X215419394Y-99012726D01*
X215390568Y-98924008D01*
X215390566Y-98924005D01*
X215390566Y-98924003D01*
X215334002Y-98812991D01*
X215283343Y-98713567D01*
X215144517Y-98522490D01*
X214977510Y-98355483D01*
X214807262Y-98231790D01*
X214786431Y-98216655D01*
X214668204Y-98156415D01*
X214617409Y-98108441D01*
X214600500Y-98045931D01*
X214600500Y-95050097D01*
X214620185Y-94983058D01*
X214636819Y-94962416D01*
X214730519Y-94868716D01*
X214809576Y-94731785D01*
X214850500Y-94579058D01*
X214850500Y-94420943D01*
X214841739Y-94388248D01*
X214831625Y-94350498D01*
X214831625Y-94350497D01*
X214809577Y-94268218D01*
X214809576Y-94268215D01*
X214804999Y-94260288D01*
X214730519Y-94131284D01*
X213237590Y-92638355D01*
X213237588Y-92638352D01*
X213118717Y-92519481D01*
X213118716Y-92519480D01*
X213031904Y-92469360D01*
X213031904Y-92469359D01*
X213031900Y-92469358D01*
X212981785Y-92440423D01*
X212829057Y-92399499D01*
X212670943Y-92399499D01*
X212663347Y-92399499D01*
X212663331Y-92399500D01*
X203579766Y-92399500D01*
X203512727Y-92379815D01*
X203510875Y-92378602D01*
X203379185Y-92290609D01*
X203379172Y-92290602D01*
X203233501Y-92230264D01*
X203233489Y-92230261D01*
X203078845Y-92199500D01*
X203078842Y-92199500D01*
X202921158Y-92199500D01*
X202921155Y-92199500D01*
X202766510Y-92230261D01*
X202766498Y-92230264D01*
X202620827Y-92290602D01*
X202620814Y-92290609D01*
X202489711Y-92378210D01*
X202489707Y-92378213D01*
X202378213Y-92489707D01*
X202378210Y-92489711D01*
X202290609Y-92620814D01*
X202290602Y-92620827D01*
X202230264Y-92766498D01*
X202230261Y-92766510D01*
X202199500Y-92921153D01*
X197928081Y-92921153D01*
X203788713Y-87060521D01*
X203788716Y-87060520D01*
X203900520Y-86948716D01*
X203927663Y-86901700D01*
X203935927Y-86892356D01*
X203955374Y-86880133D01*
X203971996Y-86864284D01*
X203985995Y-86860887D01*
X203995083Y-86855176D01*
X204008962Y-86855315D01*
X204028817Y-86850499D01*
X204567871Y-86850499D01*
X204567872Y-86850499D01*
X204627483Y-86844091D01*
X204762331Y-86793796D01*
X204877546Y-86707546D01*
X204963796Y-86592331D01*
X205014091Y-86457483D01*
X205020500Y-86397873D01*
X205020499Y-84102128D01*
X205014091Y-84042517D01*
X205009124Y-84029201D01*
X204963797Y-83907671D01*
X204963793Y-83907664D01*
X204877547Y-83792455D01*
X204877544Y-83792452D01*
X204762335Y-83706206D01*
X204762328Y-83706202D01*
X204627482Y-83655908D01*
X204627483Y-83655908D01*
X204567883Y-83649501D01*
X204567881Y-83649500D01*
X204567873Y-83649500D01*
X204567865Y-83649500D01*
X204144500Y-83649500D01*
X204135814Y-83646949D01*
X204126853Y-83648238D01*
X204102812Y-83637259D01*
X204077461Y-83629815D01*
X204071533Y-83622974D01*
X204063297Y-83619213D01*
X204049007Y-83596978D01*
X204031706Y-83577011D01*
X204029418Y-83566496D01*
X204025523Y-83560435D01*
X204020500Y-83525500D01*
X204020500Y-83460096D01*
X204040185Y-83393057D01*
X204056814Y-83372420D01*
X212397076Y-75032157D01*
X212458397Y-74998674D01*
X212523073Y-75001909D01*
X212698580Y-75058934D01*
X212705215Y-75061090D01*
X212954038Y-75100500D01*
X212954039Y-75100500D01*
X213205961Y-75100500D01*
X213205962Y-75100500D01*
X213454785Y-75061090D01*
X213694379Y-74983241D01*
X213918845Y-74868870D01*
X214122656Y-74720793D01*
X214300793Y-74542656D01*
X214448870Y-74338845D01*
X214563241Y-74114379D01*
X214641090Y-73874785D01*
X214680500Y-73625962D01*
X214680500Y-73374038D01*
X214641090Y-73125215D01*
X214563241Y-72885621D01*
X214563239Y-72885618D01*
X214563239Y-72885616D01*
X214521747Y-72804184D01*
X214448870Y-72661155D01*
X214429952Y-72635117D01*
X214300798Y-72457350D01*
X214300794Y-72457345D01*
X214122654Y-72279205D01*
X214122649Y-72279201D01*
X213918848Y-72131132D01*
X213918847Y-72131131D01*
X213918845Y-72131130D01*
X213848747Y-72095413D01*
X213694383Y-72016760D01*
X213454785Y-71938910D01*
X213205962Y-71899500D01*
X212954038Y-71899500D01*
X212829626Y-71919205D01*
X212705214Y-71938910D01*
X212465616Y-72016760D01*
X212241151Y-72131132D01*
X212037350Y-72279201D01*
X212037345Y-72279205D01*
X211859205Y-72457345D01*
X211859201Y-72457350D01*
X211711132Y-72661151D01*
X211596760Y-72885616D01*
X211518910Y-73125214D01*
X211479500Y-73374038D01*
X211479500Y-73625961D01*
X211518910Y-73874786D01*
X211518910Y-73874789D01*
X211578090Y-74056924D01*
X211580085Y-74126765D01*
X211547840Y-74182923D01*
X203051286Y-82679478D01*
X202939481Y-82791282D01*
X202939480Y-82791284D01*
X202894775Y-82868716D01*
X202860423Y-82928215D01*
X202819499Y-83080943D01*
X202819499Y-83080945D01*
X202819499Y-83249046D01*
X202819500Y-83249059D01*
X202819500Y-83525500D01*
X202799815Y-83592539D01*
X202747011Y-83638294D01*
X202695500Y-83649500D01*
X202272129Y-83649500D01*
X202272123Y-83649501D01*
X202212516Y-83655908D01*
X202077671Y-83706202D01*
X202077664Y-83706206D01*
X201962455Y-83792452D01*
X201962452Y-83792455D01*
X201876206Y-83907664D01*
X201876202Y-83907671D01*
X201825908Y-84042517D01*
X201819501Y-84102116D01*
X201819501Y-84102123D01*
X201819500Y-84102135D01*
X201819500Y-86397870D01*
X201819501Y-86397876D01*
X201825908Y-86457483D01*
X201876202Y-86592328D01*
X201876206Y-86592335D01*
X201962452Y-86707544D01*
X201962455Y-86707547D01*
X202077664Y-86793793D01*
X202077673Y-86793798D01*
X202100310Y-86802241D01*
X202156244Y-86844111D01*
X202180662Y-86909575D01*
X202165811Y-86977848D01*
X202144659Y-87006104D01*
X191787584Y-97363181D01*
X191726261Y-97396666D01*
X191699903Y-97399500D01*
X156474500Y-97399500D01*
X156407461Y-97379815D01*
X156361706Y-97327011D01*
X156350500Y-97275500D01*
X156350500Y-96339060D01*
X156350501Y-96339047D01*
X156350501Y-96170944D01*
X156341768Y-96138352D01*
X156309577Y-96018216D01*
X156264664Y-95940423D01*
X156230524Y-95881290D01*
X156230518Y-95881282D01*
X151520389Y-91171153D01*
X154699500Y-91171153D01*
X154699500Y-91328846D01*
X154730261Y-91483489D01*
X154730264Y-91483501D01*
X154790602Y-91629172D01*
X154790609Y-91629185D01*
X154878210Y-91760288D01*
X154878213Y-91760292D01*
X154989707Y-91871786D01*
X154989711Y-91871789D01*
X155120814Y-91959390D01*
X155120827Y-91959397D01*
X155266498Y-92019735D01*
X155266503Y-92019737D01*
X155421153Y-92050499D01*
X155421156Y-92050500D01*
X155421158Y-92050500D01*
X155578844Y-92050500D01*
X155578845Y-92050499D01*
X155733497Y-92019737D01*
X155879179Y-91959394D01*
X156010289Y-91871789D01*
X156121789Y-91760289D01*
X156209394Y-91629179D01*
X156269737Y-91483497D01*
X156294657Y-91358216D01*
X156300638Y-91328150D01*
X156333023Y-91266239D01*
X156334518Y-91264716D01*
X160172416Y-87426819D01*
X160233739Y-87393334D01*
X160260097Y-87390500D01*
X173574487Y-87390500D01*
X173641526Y-87410185D01*
X173674804Y-87441613D01*
X173779055Y-87585102D01*
X173914898Y-87720945D01*
X174070319Y-87833865D01*
X174193572Y-87896666D01*
X174241493Y-87921083D01*
X174285539Y-87935394D01*
X174424199Y-87980447D01*
X174613945Y-88010500D01*
X174613946Y-88010500D01*
X174806054Y-88010500D01*
X174806055Y-88010500D01*
X174995801Y-87980447D01*
X175178509Y-87921082D01*
X175349681Y-87833865D01*
X175505102Y-87720945D01*
X175640945Y-87585102D01*
X175745195Y-87441613D01*
X175800525Y-87398949D01*
X175845513Y-87390500D01*
X191739903Y-87390500D01*
X191806942Y-87410185D01*
X191827584Y-87426819D01*
X194165425Y-89764660D01*
X194198910Y-89825983D01*
X194199361Y-89828149D01*
X194230261Y-89983491D01*
X194230264Y-89983501D01*
X194290602Y-90129172D01*
X194290609Y-90129185D01*
X194378210Y-90260288D01*
X194378213Y-90260292D01*
X194489707Y-90371786D01*
X194489711Y-90371789D01*
X194620814Y-90459390D01*
X194620827Y-90459397D01*
X194677951Y-90483058D01*
X194766503Y-90519737D01*
X194919132Y-90550097D01*
X194921153Y-90550499D01*
X194921156Y-90550500D01*
X194921158Y-90550500D01*
X195078844Y-90550500D01*
X195078845Y-90550499D01*
X195233497Y-90519737D01*
X195379179Y-90459394D01*
X195510289Y-90371789D01*
X195621789Y-90260289D01*
X195709394Y-90129179D01*
X195769737Y-89983497D01*
X195800500Y-89828842D01*
X195800500Y-89671158D01*
X195800500Y-89671155D01*
X195800499Y-89671153D01*
X195795741Y-89647233D01*
X195769737Y-89516503D01*
X195752753Y-89475500D01*
X195709397Y-89370827D01*
X195709390Y-89370814D01*
X195621789Y-89239711D01*
X195621786Y-89239707D01*
X195510292Y-89128213D01*
X195510288Y-89128210D01*
X195379185Y-89040609D01*
X195379172Y-89040602D01*
X195233501Y-88980264D01*
X195233491Y-88980261D01*
X195078149Y-88949361D01*
X195016238Y-88916976D01*
X195014660Y-88915425D01*
X192527590Y-86428355D01*
X192527588Y-86428352D01*
X192408717Y-86309481D01*
X192408716Y-86309480D01*
X192321904Y-86259360D01*
X192321904Y-86259359D01*
X192321900Y-86259358D01*
X192271785Y-86230423D01*
X192119057Y-86189499D01*
X191960943Y-86189499D01*
X191953347Y-86189499D01*
X191953331Y-86189500D01*
X175845513Y-86189500D01*
X175778474Y-86169815D01*
X175745195Y-86138386D01*
X175640945Y-85994898D01*
X175505102Y-85859055D01*
X175349681Y-85746135D01*
X175210692Y-85675316D01*
X175178506Y-85658916D01*
X174995802Y-85599553D01*
X174900928Y-85584526D01*
X174806055Y-85569500D01*
X174613945Y-85569500D01*
X174550696Y-85579517D01*
X174424197Y-85599553D01*
X174241493Y-85658916D01*
X174070318Y-85746135D01*
X173981645Y-85810560D01*
X173914898Y-85859055D01*
X173914896Y-85859057D01*
X173914895Y-85859057D01*
X173779057Y-85994895D01*
X173779057Y-85994896D01*
X173779055Y-85994898D01*
X173674805Y-86138386D01*
X173619475Y-86181051D01*
X173574487Y-86189500D01*
X159880940Y-86189500D01*
X159840019Y-86200464D01*
X159840019Y-86200465D01*
X159802751Y-86210451D01*
X159728214Y-86230423D01*
X159728209Y-86230426D01*
X159591290Y-86309475D01*
X159591282Y-86309481D01*
X155485339Y-90415425D01*
X155424016Y-90448910D01*
X155421850Y-90449361D01*
X155266508Y-90480261D01*
X155266498Y-90480264D01*
X155120827Y-90540602D01*
X155120814Y-90540609D01*
X154989711Y-90628210D01*
X154989707Y-90628213D01*
X154878213Y-90739707D01*
X154878210Y-90739711D01*
X154790609Y-90870814D01*
X154790602Y-90870827D01*
X154730264Y-91016498D01*
X154730261Y-91016510D01*
X154699500Y-91171153D01*
X151520389Y-91171153D01*
X147834573Y-87485337D01*
X147801088Y-87424014D01*
X147800637Y-87421847D01*
X147794402Y-87390500D01*
X147769737Y-87266503D01*
X147731113Y-87173255D01*
X147709397Y-87120827D01*
X147709390Y-87120814D01*
X147621789Y-86989711D01*
X147621786Y-86989707D01*
X147510292Y-86878213D01*
X147510288Y-86878210D01*
X147379185Y-86790609D01*
X147379172Y-86790602D01*
X147233501Y-86730264D01*
X147233489Y-86730261D01*
X147078845Y-86699500D01*
X147078842Y-86699500D01*
X146921158Y-86699500D01*
X146921155Y-86699500D01*
X146766510Y-86730261D01*
X146766498Y-86730264D01*
X146620827Y-86790602D01*
X146620814Y-86790609D01*
X146489711Y-86878210D01*
X146489707Y-86878213D01*
X146378213Y-86989707D01*
X146378210Y-86989711D01*
X146290609Y-87120814D01*
X146290602Y-87120827D01*
X146230264Y-87266498D01*
X146230261Y-87266508D01*
X146199361Y-87421850D01*
X146166976Y-87483761D01*
X146165425Y-87485339D01*
X145967174Y-87683590D01*
X145905851Y-87717075D01*
X145836159Y-87712091D01*
X145780226Y-87670219D01*
X145760417Y-87630504D01*
X145726745Y-87514606D01*
X145726744Y-87514603D01*
X145726744Y-87514602D01*
X145643081Y-87373135D01*
X145643080Y-87373134D01*
X145643076Y-87373129D01*
X145526870Y-87256923D01*
X145526862Y-87256917D01*
X145385396Y-87173255D01*
X145385393Y-87173254D01*
X145227573Y-87127402D01*
X145227567Y-87127401D01*
X145190701Y-87124500D01*
X145190694Y-87124500D01*
X144400097Y-87124500D01*
X144333058Y-87104815D01*
X144312416Y-87088181D01*
X142136819Y-84912584D01*
X142103334Y-84851261D01*
X142100500Y-84824903D01*
X142100500Y-84153945D01*
X170949500Y-84153945D01*
X170949500Y-84346054D01*
X170979553Y-84535802D01*
X171038916Y-84718506D01*
X171085320Y-84809577D01*
X171126135Y-84889681D01*
X171239055Y-85045102D01*
X171374898Y-85180945D01*
X171530319Y-85293865D01*
X171701491Y-85381082D01*
X171701493Y-85381083D01*
X171792845Y-85410764D01*
X171884199Y-85440447D01*
X172073945Y-85470500D01*
X172073946Y-85470500D01*
X172266054Y-85470500D01*
X172266055Y-85470500D01*
X172455801Y-85440447D01*
X172638509Y-85381082D01*
X172809681Y-85293865D01*
X172965102Y-85180945D01*
X173100945Y-85045102D01*
X173213865Y-84889681D01*
X173301082Y-84718509D01*
X173360447Y-84535801D01*
X173390500Y-84346055D01*
X173390500Y-84153945D01*
X176029500Y-84153945D01*
X176029500Y-84346054D01*
X176059553Y-84535802D01*
X176118916Y-84718506D01*
X176165320Y-84809577D01*
X176206135Y-84889681D01*
X176319055Y-85045102D01*
X176454898Y-85180945D01*
X176610319Y-85293865D01*
X176781491Y-85381082D01*
X176781493Y-85381083D01*
X176872845Y-85410764D01*
X176964199Y-85440447D01*
X177153945Y-85470500D01*
X177153946Y-85470500D01*
X177346054Y-85470500D01*
X177346055Y-85470500D01*
X177535801Y-85440447D01*
X177718509Y-85381082D01*
X177889681Y-85293865D01*
X178045102Y-85180945D01*
X178180945Y-85045102D01*
X178285195Y-84901613D01*
X178340525Y-84858949D01*
X178385513Y-84850500D01*
X197163331Y-84850500D01*
X197163347Y-84850501D01*
X197170943Y-84850501D01*
X197329054Y-84850501D01*
X197329057Y-84850501D01*
X197481785Y-84809577D01*
X197551233Y-84769481D01*
X197618716Y-84730520D01*
X197730520Y-84618716D01*
X197730520Y-84618714D01*
X197740724Y-84608511D01*
X197740727Y-84608506D01*
X212962416Y-69386819D01*
X213023739Y-69353334D01*
X213050097Y-69350500D01*
X216775500Y-69350500D01*
X216842539Y-69370185D01*
X216888294Y-69422989D01*
X216899500Y-69474500D01*
X216899500Y-81029902D01*
X216879815Y-81096941D01*
X216863181Y-81117583D01*
X214262923Y-83717840D01*
X214201600Y-83751325D01*
X214136924Y-83748090D01*
X213954787Y-83688910D01*
X213788903Y-83662636D01*
X213705962Y-83649500D01*
X213454038Y-83649500D01*
X213329626Y-83669205D01*
X213205214Y-83688910D01*
X212965616Y-83766760D01*
X212741151Y-83881132D01*
X212537350Y-84029201D01*
X212537345Y-84029205D01*
X212359205Y-84207345D01*
X212359201Y-84207350D01*
X212211132Y-84411151D01*
X212096760Y-84635616D01*
X212018910Y-84875214D01*
X212018910Y-84875215D01*
X211979500Y-85124038D01*
X211979500Y-85375962D01*
X211996261Y-85481785D01*
X212018910Y-85624785D01*
X212096760Y-85864383D01*
X212211132Y-86088848D01*
X212359201Y-86292649D01*
X212359205Y-86292654D01*
X212537345Y-86470794D01*
X212537350Y-86470798D01*
X212704623Y-86592328D01*
X212741155Y-86618870D01*
X212884184Y-86691747D01*
X212965616Y-86733239D01*
X212965618Y-86733239D01*
X212965621Y-86733241D01*
X213205215Y-86811090D01*
X213454038Y-86850500D01*
X213454039Y-86850500D01*
X213705961Y-86850500D01*
X213705962Y-86850500D01*
X213954785Y-86811090D01*
X214194379Y-86733241D01*
X214418845Y-86618870D01*
X214622656Y-86470793D01*
X214800793Y-86292656D01*
X214948870Y-86088845D01*
X215063241Y-85864379D01*
X215141090Y-85624785D01*
X215180500Y-85375962D01*
X215180500Y-85124038D01*
X215141090Y-84875215D01*
X215141089Y-84875211D01*
X215141089Y-84875210D01*
X215081909Y-84693073D01*
X215079914Y-84623232D01*
X215112157Y-84567076D01*
X217868713Y-81810521D01*
X217868716Y-81810520D01*
X217980520Y-81698716D01*
X218030639Y-81611904D01*
X218059577Y-81561785D01*
X218100500Y-81409057D01*
X218100500Y-81250943D01*
X218100500Y-68670943D01*
X218059577Y-68518216D01*
X218027409Y-68462499D01*
X217980524Y-68381290D01*
X217980518Y-68381282D01*
X217868717Y-68269481D01*
X217868709Y-68269475D01*
X217731790Y-68190426D01*
X217731786Y-68190424D01*
X217731784Y-68190423D01*
X217579057Y-68149500D01*
X212829057Y-68149500D01*
X212670942Y-68149500D01*
X212518215Y-68190423D01*
X212518214Y-68190423D01*
X212518212Y-68190424D01*
X212518209Y-68190425D01*
X212468096Y-68219359D01*
X212468095Y-68219360D01*
X212424689Y-68244420D01*
X212381285Y-68269479D01*
X212381282Y-68269481D01*
X212269478Y-68381286D01*
X197037584Y-83613181D01*
X196976261Y-83646666D01*
X196949903Y-83649500D01*
X178385513Y-83649500D01*
X178318474Y-83629815D01*
X178285195Y-83598386D01*
X178269665Y-83577011D01*
X178180945Y-83454898D01*
X178045102Y-83319055D01*
X177889681Y-83206135D01*
X177850500Y-83186171D01*
X177718506Y-83118916D01*
X177535802Y-83059553D01*
X177440928Y-83044526D01*
X177346055Y-83029500D01*
X177153945Y-83029500D01*
X177090696Y-83039517D01*
X176964197Y-83059553D01*
X176781493Y-83118916D01*
X176610318Y-83206135D01*
X176551257Y-83249046D01*
X176454898Y-83319055D01*
X176454896Y-83319057D01*
X176454895Y-83319057D01*
X176319057Y-83454895D01*
X176319057Y-83454896D01*
X176319055Y-83454898D01*
X176270560Y-83521645D01*
X176206135Y-83610318D01*
X176118916Y-83781493D01*
X176059553Y-83964197D01*
X176029500Y-84153945D01*
X173390500Y-84153945D01*
X173360447Y-83964199D01*
X173330764Y-83872845D01*
X173301083Y-83781493D01*
X173293576Y-83766759D01*
X173213865Y-83610319D01*
X173100945Y-83454898D01*
X172965102Y-83319055D01*
X172868761Y-83249059D01*
X172821614Y-83214804D01*
X172778949Y-83159473D01*
X172770500Y-83114486D01*
X172770500Y-75130096D01*
X172790185Y-75063057D01*
X172806819Y-75042415D01*
X173712416Y-74136819D01*
X173773739Y-74103334D01*
X173800097Y-74100500D01*
X201195501Y-74100500D01*
X201262540Y-74120185D01*
X201308295Y-74172989D01*
X201319501Y-74224500D01*
X201319501Y-74647876D01*
X201325908Y-74707483D01*
X201376202Y-74842328D01*
X201376206Y-74842335D01*
X201462452Y-74957544D01*
X201462455Y-74957547D01*
X201577664Y-75043793D01*
X201577671Y-75043797D01*
X201712517Y-75094091D01*
X201712516Y-75094091D01*
X201719444Y-75094835D01*
X201772127Y-75100500D01*
X204067872Y-75100499D01*
X204127483Y-75094091D01*
X204262331Y-75043796D01*
X204377546Y-74957546D01*
X204463796Y-74842331D01*
X204514091Y-74707483D01*
X204520500Y-74647873D01*
X204520499Y-72352128D01*
X204514091Y-72292517D01*
X204509124Y-72279201D01*
X204463797Y-72157671D01*
X204463793Y-72157664D01*
X204377547Y-72042455D01*
X204377544Y-72042452D01*
X204262335Y-71956206D01*
X204262328Y-71956202D01*
X204127482Y-71905908D01*
X204127483Y-71905908D01*
X204067883Y-71899501D01*
X204067881Y-71899500D01*
X204067873Y-71899500D01*
X204067864Y-71899500D01*
X201772129Y-71899500D01*
X201772123Y-71899501D01*
X201712516Y-71905908D01*
X201577671Y-71956202D01*
X201577664Y-71956206D01*
X201462455Y-72042452D01*
X201462452Y-72042455D01*
X201376206Y-72157664D01*
X201376202Y-72157671D01*
X201325908Y-72292517D01*
X201319501Y-72352116D01*
X201319501Y-72352123D01*
X201319500Y-72352135D01*
X201319500Y-72775500D01*
X201299815Y-72842539D01*
X201247011Y-72888294D01*
X201195500Y-72899500D01*
X173420940Y-72899500D01*
X173380019Y-72910464D01*
X173380019Y-72910465D01*
X173342751Y-72920451D01*
X173268214Y-72940423D01*
X173268209Y-72940426D01*
X173131290Y-73019475D01*
X173131282Y-73019481D01*
X173019478Y-73131286D01*
X171631284Y-74519481D01*
X171519483Y-74631281D01*
X171519481Y-74631284D01*
X171440423Y-74768214D01*
X171440423Y-74768215D01*
X171399499Y-74920943D01*
X171399499Y-74920945D01*
X171399499Y-75079054D01*
X171399498Y-75079054D01*
X171399499Y-75079057D01*
X171440423Y-75231785D01*
X171519481Y-75368716D01*
X171519483Y-75368718D01*
X171533181Y-75382416D01*
X171566666Y-75443739D01*
X171569500Y-75470097D01*
X171569500Y-83114486D01*
X171549815Y-83181525D01*
X171518386Y-83214804D01*
X171374896Y-83319056D01*
X171239057Y-83454895D01*
X171239057Y-83454896D01*
X171239055Y-83454898D01*
X171190560Y-83521645D01*
X171126135Y-83610318D01*
X171038916Y-83781493D01*
X170979553Y-83964197D01*
X170949500Y-84153945D01*
X142100500Y-84153945D01*
X142100500Y-79671153D01*
X143699500Y-79671153D01*
X143699500Y-79828846D01*
X143730261Y-79983489D01*
X143730264Y-79983501D01*
X143790602Y-80129172D01*
X143790609Y-80129185D01*
X143878210Y-80260288D01*
X143878213Y-80260292D01*
X143989707Y-80371786D01*
X143989711Y-80371789D01*
X144120814Y-80459390D01*
X144120827Y-80459397D01*
X144266498Y-80519735D01*
X144266503Y-80519737D01*
X144421153Y-80550499D01*
X144421156Y-80550500D01*
X144421158Y-80550500D01*
X144578844Y-80550500D01*
X144578845Y-80550499D01*
X144733497Y-80519737D01*
X144879179Y-80459394D01*
X144879185Y-80459390D01*
X145010875Y-80371398D01*
X145077553Y-80350520D01*
X145079766Y-80350500D01*
X154163331Y-80350500D01*
X154163347Y-80350501D01*
X154170943Y-80350501D01*
X154329054Y-80350501D01*
X154329057Y-80350501D01*
X154481785Y-80309577D01*
X154531904Y-80280639D01*
X154618716Y-80230520D01*
X154730520Y-80118716D01*
X154730520Y-80118714D01*
X154740728Y-80108507D01*
X154740730Y-80108504D01*
X172163871Y-62685362D01*
X172225192Y-62651879D01*
X172294884Y-62656863D01*
X172299003Y-62658484D01*
X172420007Y-62708606D01*
X172647986Y-62769693D01*
X172881989Y-62800500D01*
X172881996Y-62800500D01*
X173118004Y-62800500D01*
X173118011Y-62800500D01*
X173352014Y-62769693D01*
X173579993Y-62708606D01*
X173798049Y-62618284D01*
X174002450Y-62500273D01*
X174189699Y-62356592D01*
X174356592Y-62189699D01*
X174500273Y-62002450D01*
X174618284Y-61798049D01*
X174708606Y-61579993D01*
X174769693Y-61352014D01*
X174800500Y-61118011D01*
X174800500Y-60881989D01*
X174769693Y-60647986D01*
X174708606Y-60420007D01*
X174618284Y-60201951D01*
X174618282Y-60201948D01*
X174618280Y-60201943D01*
X174570228Y-60118716D01*
X174500273Y-59997550D01*
X174356592Y-59810301D01*
X174356587Y-59810295D01*
X174189704Y-59643412D01*
X174189697Y-59643406D01*
X174002454Y-59499730D01*
X174002453Y-59499729D01*
X174002450Y-59499727D01*
X173916152Y-59449903D01*
X173798056Y-59381719D01*
X173798045Y-59381714D01*
X173579993Y-59291394D01*
X173352010Y-59230306D01*
X173118020Y-59199501D01*
X173118017Y-59199500D01*
X173118011Y-59199500D01*
X172881989Y-59199500D01*
X172881983Y-59199500D01*
X172881979Y-59199501D01*
X172647989Y-59230306D01*
X172420006Y-59291394D01*
X172201954Y-59381714D01*
X172201943Y-59381719D01*
X171997545Y-59499730D01*
X171810302Y-59643406D01*
X171810295Y-59643412D01*
X171643412Y-59810295D01*
X171643406Y-59810302D01*
X171499730Y-59997545D01*
X171381719Y-60201943D01*
X171381714Y-60201954D01*
X171291394Y-60420006D01*
X171230306Y-60647989D01*
X171199501Y-60881979D01*
X171199500Y-60881995D01*
X171199500Y-61118004D01*
X171199501Y-61118020D01*
X171228573Y-61338848D01*
X171230307Y-61352014D01*
X171291394Y-61579993D01*
X171329914Y-61672989D01*
X171341515Y-61700994D01*
X171348984Y-61770463D01*
X171317709Y-61832943D01*
X171314635Y-61836128D01*
X154037584Y-79113181D01*
X153976261Y-79146666D01*
X153949903Y-79149500D01*
X145079766Y-79149500D01*
X145012727Y-79129815D01*
X145010875Y-79128602D01*
X144879185Y-79040609D01*
X144879172Y-79040602D01*
X144733501Y-78980264D01*
X144733489Y-78980261D01*
X144578845Y-78949500D01*
X144578842Y-78949500D01*
X144421158Y-78949500D01*
X144421155Y-78949500D01*
X144266510Y-78980261D01*
X144266498Y-78980264D01*
X144120827Y-79040602D01*
X144120814Y-79040609D01*
X143989711Y-79128210D01*
X143989707Y-79128213D01*
X143878213Y-79239707D01*
X143878210Y-79239711D01*
X143790609Y-79370814D01*
X143790602Y-79370827D01*
X143730264Y-79516498D01*
X143730261Y-79516510D01*
X143699500Y-79671153D01*
X142100500Y-79671153D01*
X142100500Y-62800097D01*
X142120185Y-62733058D01*
X142136819Y-62712416D01*
X143212415Y-61636820D01*
X143239344Y-61622115D01*
X143265158Y-61605525D01*
X143271360Y-61604633D01*
X143273738Y-61603335D01*
X143300093Y-61600501D01*
X143329057Y-61600501D01*
X143329060Y-61600500D01*
X143336666Y-61600500D01*
X165995501Y-61600500D01*
X166062540Y-61620185D01*
X166108295Y-61672989D01*
X166119501Y-61724500D01*
X166119501Y-62100018D01*
X166130000Y-62202796D01*
X166130001Y-62202799D01*
X166151678Y-62268215D01*
X166185186Y-62369334D01*
X166277288Y-62518656D01*
X166401344Y-62642712D01*
X166550666Y-62734814D01*
X166717203Y-62789999D01*
X166819991Y-62800500D01*
X169020008Y-62800499D01*
X169023944Y-62800097D01*
X169037895Y-62798671D01*
X169122797Y-62789999D01*
X169289334Y-62734814D01*
X169438656Y-62642712D01*
X169562712Y-62518656D01*
X169654814Y-62369334D01*
X169709999Y-62202797D01*
X169720500Y-62100009D01*
X169720499Y-59899992D01*
X169719030Y-59885616D01*
X169709999Y-59797203D01*
X169709998Y-59797200D01*
X169654814Y-59630666D01*
X169562712Y-59481344D01*
X169438656Y-59357288D01*
X169289334Y-59265186D01*
X169122797Y-59210001D01*
X169122795Y-59210000D01*
X169020010Y-59199500D01*
X166819998Y-59199500D01*
X166819981Y-59199501D01*
X166717203Y-59210000D01*
X166717200Y-59210001D01*
X166550668Y-59265185D01*
X166550663Y-59265187D01*
X166401342Y-59357289D01*
X166277289Y-59481342D01*
X166185187Y-59630663D01*
X166185185Y-59630668D01*
X166180962Y-59643412D01*
X166130001Y-59797203D01*
X166130001Y-59797204D01*
X166130000Y-59797204D01*
X166119500Y-59899983D01*
X166119500Y-60275500D01*
X166099815Y-60342539D01*
X166047011Y-60388294D01*
X165995500Y-60399500D01*
X144999098Y-60399500D01*
X144985559Y-60395524D01*
X144971475Y-60396384D01*
X144952700Y-60385875D01*
X144932059Y-60379815D01*
X144922819Y-60369152D01*
X144910505Y-60362260D01*
X144900391Y-60343268D01*
X144886304Y-60327011D01*
X144884295Y-60313045D01*
X144877663Y-60300590D01*
X144879421Y-60279147D01*
X144876360Y-60257853D01*
X144882334Y-60243639D01*
X144883375Y-60230955D01*
X144895519Y-60212272D01*
X144900613Y-60200156D01*
X144905604Y-60193631D01*
X144980520Y-60118716D01*
X145030639Y-60031904D01*
X145059577Y-59981785D01*
X145100501Y-59829057D01*
X145100501Y-59670943D01*
X145100501Y-59663348D01*
X145100500Y-59663330D01*
X145100500Y-57829765D01*
X145120185Y-57762726D01*
X145121398Y-57760874D01*
X145209390Y-57629185D01*
X145209390Y-57629184D01*
X145209394Y-57629179D01*
X145269737Y-57483497D01*
X145300500Y-57328842D01*
X145300500Y-57171158D01*
X145300500Y-57171155D01*
X145300499Y-57171153D01*
X145269738Y-57016510D01*
X145269737Y-57016503D01*
X145269735Y-57016498D01*
X145209397Y-56870827D01*
X145209390Y-56870814D01*
X145121789Y-56739711D01*
X145121786Y-56739707D01*
X145010292Y-56628213D01*
X145010288Y-56628210D01*
X144879185Y-56540609D01*
X144879172Y-56540602D01*
X144733501Y-56480264D01*
X144733489Y-56480261D01*
X144578845Y-56449500D01*
X144578842Y-56449500D01*
X144421158Y-56449500D01*
X144421155Y-56449500D01*
X144266510Y-56480261D01*
X144266498Y-56480264D01*
X144120827Y-56540602D01*
X144120816Y-56540608D01*
X144098709Y-56555380D01*
X144032031Y-56576257D01*
X143964651Y-56557772D01*
X143917961Y-56505792D01*
X143906786Y-56436822D01*
X143934672Y-56372759D01*
X143942131Y-56364603D01*
X149169916Y-51136819D01*
X149231239Y-51103334D01*
X149257597Y-51100500D01*
X204449903Y-51100500D01*
X204516942Y-51120185D01*
X204537584Y-51136819D01*
X212193181Y-58792416D01*
X212207884Y-58819343D01*
X212224477Y-58845162D01*
X212225368Y-58851362D01*
X212226666Y-58853739D01*
X212229500Y-58880097D01*
X212229500Y-58933699D01*
X212209815Y-59000738D01*
X212161795Y-59044184D01*
X211991151Y-59131132D01*
X211787350Y-59279201D01*
X211787345Y-59279205D01*
X211609205Y-59457345D01*
X211609201Y-59457350D01*
X211461132Y-59661151D01*
X211346760Y-59885616D01*
X211268910Y-60125214D01*
X211229500Y-60374038D01*
X211229500Y-60625961D01*
X211268910Y-60874785D01*
X211346760Y-61114383D01*
X211461132Y-61338848D01*
X211609201Y-61542649D01*
X211609205Y-61542654D01*
X211787345Y-61720794D01*
X211787350Y-61720798D01*
X211946089Y-61836128D01*
X211991155Y-61868870D01*
X212134184Y-61941747D01*
X212215616Y-61983239D01*
X212215618Y-61983239D01*
X212215621Y-61983241D01*
X212455215Y-62061090D01*
X212704038Y-62100500D01*
X212704039Y-62100500D01*
X212955961Y-62100500D01*
X212955962Y-62100500D01*
X213204785Y-62061090D01*
X213444379Y-61983241D01*
X213668845Y-61868870D01*
X213872656Y-61720793D01*
X214050793Y-61542656D01*
X214198870Y-61338845D01*
X214313241Y-61114379D01*
X214391090Y-60874785D01*
X214430500Y-60625962D01*
X214430500Y-60374038D01*
X214391090Y-60125215D01*
X214313241Y-59885621D01*
X214313239Y-59885618D01*
X214313239Y-59885616D01*
X214268188Y-59797200D01*
X214198870Y-59661155D01*
X214176720Y-59630668D01*
X214050798Y-59457350D01*
X214050794Y-59457345D01*
X213872654Y-59279205D01*
X213872649Y-59279201D01*
X213668848Y-59131132D01*
X213668847Y-59131131D01*
X213668845Y-59131130D01*
X213599186Y-59095637D01*
X213498205Y-59044184D01*
X213447409Y-58996209D01*
X213430500Y-58933699D01*
X213430500Y-58669060D01*
X213430501Y-58669047D01*
X213430501Y-58500944D01*
X213421123Y-58465945D01*
X213389577Y-58348216D01*
X213389573Y-58348209D01*
X213310524Y-58211290D01*
X213310518Y-58211282D01*
X205237590Y-50138355D01*
X205237588Y-50138352D01*
X205118715Y-50019479D01*
X205081119Y-49997774D01*
X205053602Y-49981887D01*
X205005387Y-49931321D01*
X204992163Y-49862714D01*
X205018131Y-49797849D01*
X205075044Y-49757320D01*
X205115602Y-49750500D01*
X231625500Y-49750500D01*
X231692539Y-49770185D01*
X231738294Y-49822989D01*
X231749500Y-49874500D01*
X231749500Y-123625500D01*
X231729815Y-123692539D01*
X231677011Y-123738294D01*
X231625500Y-123749500D01*
X113124500Y-123749500D01*
X113057461Y-123729815D01*
X113011706Y-123677011D01*
X113000500Y-123625500D01*
X113000500Y-85329054D01*
X118399498Y-85329054D01*
X118440423Y-85481785D01*
X118469358Y-85531900D01*
X118469359Y-85531904D01*
X118469360Y-85531904D01*
X118511861Y-85605520D01*
X118519479Y-85618714D01*
X118519481Y-85618717D01*
X118638349Y-85737585D01*
X118638355Y-85737590D01*
X120562022Y-87661257D01*
X120595507Y-87722580D01*
X120590523Y-87792272D01*
X120580458Y-87813087D01*
X120506523Y-87935391D01*
X120455913Y-88097807D01*
X120449500Y-88168386D01*
X120449500Y-88831613D01*
X120455913Y-88902192D01*
X120455913Y-88902194D01*
X120455914Y-88902196D01*
X120480320Y-88980518D01*
X120506522Y-89064606D01*
X120594530Y-89210188D01*
X120714811Y-89330469D01*
X120714813Y-89330470D01*
X120714815Y-89330472D01*
X120860394Y-89418478D01*
X121022804Y-89469086D01*
X121093384Y-89475500D01*
X121093387Y-89475500D01*
X121606613Y-89475500D01*
X121606616Y-89475500D01*
X121677196Y-89469086D01*
X121839606Y-89418478D01*
X121985185Y-89330472D01*
X121985189Y-89330468D01*
X122087319Y-89228339D01*
X122148642Y-89194854D01*
X122218334Y-89199838D01*
X122262681Y-89228339D01*
X122364811Y-89330469D01*
X122364813Y-89330470D01*
X122364815Y-89330472D01*
X122510394Y-89418478D01*
X122672804Y-89469086D01*
X122743384Y-89475500D01*
X122743387Y-89475500D01*
X123256613Y-89475500D01*
X123256616Y-89475500D01*
X123327196Y-89469086D01*
X123489606Y-89418478D01*
X123635185Y-89330472D01*
X123755472Y-89210185D01*
X123785598Y-89160349D01*
X123837126Y-89113162D01*
X123891715Y-89100500D01*
X132913331Y-89100500D01*
X132913347Y-89100501D01*
X132920943Y-89100501D01*
X133079054Y-89100501D01*
X133079057Y-89100501D01*
X133231785Y-89059577D01*
X133303424Y-89018216D01*
X133368716Y-88980520D01*
X133480520Y-88868716D01*
X133480520Y-88868714D01*
X133490724Y-88858511D01*
X133490727Y-88858506D01*
X139014662Y-83334572D01*
X139075983Y-83301089D01*
X139078150Y-83300638D01*
X139136085Y-83289113D01*
X139233497Y-83269737D01*
X139379179Y-83209394D01*
X139510289Y-83121789D01*
X139621789Y-83010289D01*
X139709394Y-82879179D01*
X139713728Y-82868717D01*
X139723067Y-82846166D01*
X139769737Y-82733497D01*
X139800500Y-82578842D01*
X139800500Y-82421158D01*
X139800500Y-82421155D01*
X139800499Y-82421153D01*
X139769738Y-82266510D01*
X139769738Y-82266508D01*
X139769737Y-82266503D01*
X139769735Y-82266498D01*
X139709397Y-82120827D01*
X139709390Y-82120814D01*
X139621789Y-81989711D01*
X139621786Y-81989707D01*
X139510292Y-81878213D01*
X139510288Y-81878210D01*
X139379185Y-81790609D01*
X139379172Y-81790602D01*
X139233501Y-81730264D01*
X139233489Y-81730261D01*
X139078845Y-81699500D01*
X139078842Y-81699500D01*
X138921158Y-81699500D01*
X138921155Y-81699500D01*
X138766510Y-81730261D01*
X138766498Y-81730264D01*
X138620827Y-81790602D01*
X138620814Y-81790609D01*
X138489711Y-81878210D01*
X138489707Y-81878213D01*
X138378213Y-81989707D01*
X138378210Y-81989711D01*
X138290609Y-82120814D01*
X138290602Y-82120827D01*
X138230264Y-82266498D01*
X138230261Y-82266508D01*
X138199361Y-82421850D01*
X138166976Y-82483761D01*
X138165425Y-82485339D01*
X132787584Y-87863181D01*
X132726261Y-87896666D01*
X132699903Y-87899500D01*
X123891715Y-87899500D01*
X123824676Y-87879815D01*
X123785598Y-87839650D01*
X123782101Y-87833865D01*
X123755472Y-87789815D01*
X123755470Y-87789813D01*
X123755469Y-87789811D01*
X123635188Y-87669530D01*
X123489606Y-87581522D01*
X123408619Y-87556286D01*
X123327196Y-87530914D01*
X123327194Y-87530913D01*
X123327192Y-87530913D01*
X123277778Y-87526423D01*
X123256616Y-87524500D01*
X122743384Y-87524500D01*
X122724145Y-87526248D01*
X122672807Y-87530913D01*
X122510393Y-87581522D01*
X122364811Y-87669530D01*
X122364810Y-87669531D01*
X122262681Y-87771661D01*
X122254735Y-87775999D01*
X122249310Y-87783247D01*
X122224550Y-87792481D01*
X122201358Y-87805146D01*
X122192328Y-87804500D01*
X122183846Y-87807664D01*
X122158025Y-87802047D01*
X122131666Y-87800162D01*
X122122612Y-87794343D01*
X122115573Y-87792812D01*
X122087319Y-87771661D01*
X121986820Y-87671162D01*
X121953335Y-87609839D01*
X121950501Y-87583481D01*
X121950501Y-87520945D01*
X121950501Y-87520943D01*
X121909577Y-87368215D01*
X121909576Y-87368214D01*
X121909576Y-87368212D01*
X121909574Y-87368209D01*
X121876115Y-87310257D01*
X121876114Y-87310256D01*
X121830520Y-87231284D01*
X121718716Y-87119480D01*
X121718715Y-87119479D01*
X121714385Y-87115149D01*
X121714374Y-87115139D01*
X119636819Y-85037584D01*
X119603334Y-84976261D01*
X119600500Y-84949903D01*
X119600500Y-67800097D01*
X119620185Y-67733058D01*
X119636819Y-67712416D01*
X120039917Y-67309319D01*
X120101240Y-67275834D01*
X120127598Y-67273000D01*
X125780501Y-67273000D01*
X125847540Y-67292685D01*
X125893295Y-67345489D01*
X125904501Y-67397000D01*
X125904501Y-67772518D01*
X125915000Y-67875296D01*
X125915001Y-67875299D01*
X125930127Y-67920945D01*
X125970186Y-68041834D01*
X126062288Y-68191156D01*
X126186344Y-68315212D01*
X126335666Y-68407314D01*
X126502203Y-68462499D01*
X126604991Y-68473000D01*
X128805008Y-68472999D01*
X128907797Y-68462499D01*
X129074334Y-68407314D01*
X129223656Y-68315212D01*
X129347712Y-68191156D01*
X129439814Y-68041834D01*
X129494999Y-67875297D01*
X129505500Y-67772509D01*
X129505499Y-65572492D01*
X129500596Y-65524499D01*
X129494999Y-65469703D01*
X129494998Y-65469700D01*
X129439814Y-65303166D01*
X129347712Y-65153844D01*
X129223656Y-65029788D01*
X129074334Y-64937686D01*
X128907797Y-64882501D01*
X128907795Y-64882500D01*
X128805016Y-64872000D01*
X128805009Y-64872000D01*
X128429500Y-64872000D01*
X128362461Y-64852315D01*
X128316706Y-64799511D01*
X128305500Y-64748000D01*
X128305500Y-58845097D01*
X128325185Y-58778058D01*
X128341819Y-58757416D01*
X129212417Y-57886819D01*
X129273740Y-57853334D01*
X129300098Y-57850500D01*
X138420234Y-57850500D01*
X138487273Y-57870185D01*
X138489125Y-57871398D01*
X138620814Y-57959390D01*
X138620827Y-57959397D01*
X138766498Y-58019735D01*
X138766503Y-58019737D01*
X138921153Y-58050499D01*
X138921156Y-58050500D01*
X138921158Y-58050500D01*
X139078844Y-58050500D01*
X139078845Y-58050499D01*
X139233497Y-58019737D01*
X139379179Y-57959394D01*
X139510289Y-57871789D01*
X139621789Y-57760289D01*
X139709394Y-57629179D01*
X139769737Y-57483497D01*
X139800500Y-57328842D01*
X139800500Y-57171158D01*
X139800500Y-57171155D01*
X139800499Y-57171153D01*
X139769738Y-57016510D01*
X139769737Y-57016503D01*
X139769735Y-57016498D01*
X139709397Y-56870827D01*
X139709390Y-56870814D01*
X139621789Y-56739711D01*
X139621786Y-56739707D01*
X139510292Y-56628213D01*
X139510288Y-56628210D01*
X139379185Y-56540609D01*
X139379172Y-56540602D01*
X139233501Y-56480264D01*
X139233489Y-56480261D01*
X139078845Y-56449500D01*
X139078842Y-56449500D01*
X138921158Y-56449500D01*
X138921155Y-56449500D01*
X138766510Y-56480261D01*
X138766498Y-56480264D01*
X138620827Y-56540602D01*
X138620814Y-56540609D01*
X138489125Y-56628602D01*
X138422447Y-56649480D01*
X138420234Y-56649500D01*
X129086670Y-56649500D01*
X129086654Y-56649499D01*
X129079058Y-56649499D01*
X128920943Y-56649499D01*
X128844579Y-56669961D01*
X128768214Y-56690423D01*
X128768209Y-56690426D01*
X128631290Y-56769475D01*
X128631282Y-56769481D01*
X127224481Y-58176282D01*
X127224479Y-58176285D01*
X127174361Y-58263094D01*
X127174359Y-58263096D01*
X127145425Y-58313209D01*
X127145424Y-58313210D01*
X127145423Y-58313215D01*
X127104499Y-58465943D01*
X127104499Y-58465945D01*
X127104499Y-58634046D01*
X127104500Y-58634059D01*
X127104500Y-64748000D01*
X127084815Y-64815039D01*
X127032011Y-64860794D01*
X126980500Y-64872000D01*
X126604998Y-64872000D01*
X126604980Y-64872001D01*
X126502203Y-64882500D01*
X126502200Y-64882501D01*
X126335668Y-64937685D01*
X126335663Y-64937687D01*
X126186342Y-65029789D01*
X126062289Y-65153842D01*
X125970187Y-65303163D01*
X125970185Y-65303168D01*
X125965962Y-65315912D01*
X125915001Y-65469703D01*
X125915001Y-65469704D01*
X125915000Y-65469704D01*
X125904500Y-65572483D01*
X125904500Y-65948000D01*
X125884815Y-66015039D01*
X125832011Y-66060794D01*
X125780500Y-66072000D01*
X119914170Y-66072000D01*
X119914154Y-66071999D01*
X119906558Y-66071999D01*
X119748443Y-66071999D01*
X119672079Y-66092461D01*
X119595714Y-66112923D01*
X119595709Y-66112926D01*
X119458790Y-66191975D01*
X119458782Y-66191981D01*
X118519481Y-67131282D01*
X118519479Y-67131285D01*
X118469361Y-67218094D01*
X118469359Y-67218096D01*
X118440425Y-67268209D01*
X118440424Y-67268210D01*
X118440423Y-67268215D01*
X118399499Y-67420943D01*
X118399499Y-67579057D01*
X118399499Y-67579059D01*
X118399500Y-67589053D01*
X118399500Y-85163330D01*
X118399499Y-85163348D01*
X118399499Y-85329054D01*
X118399498Y-85329054D01*
X113000500Y-85329054D01*
X113000500Y-49874500D01*
X113020185Y-49807461D01*
X113072989Y-49761706D01*
X113124500Y-49750500D01*
X148591897Y-49750500D01*
X148658936Y-49770185D01*
G37*
%TD.AperFunction*%
D35*
%TO.C,C1*%
X147425000Y-114750000D03*
X148385000Y-114750000D03*
%TD*%
D36*
%TO.C,U1*%
X139350000Y-87925000D03*
X139350000Y-89195000D03*
X139350000Y-90465000D03*
X139350000Y-91735000D03*
X144300000Y-91735000D03*
X144300000Y-90465000D03*
X144300000Y-89195000D03*
X144300000Y-87925000D03*
%TD*%
D20*
%TO.C,RV1*%
X177250000Y-84250000D03*
X174710000Y-86790000D03*
X172170000Y-84250000D03*
%TD*%
D37*
%TO.C,R2*%
X121350000Y-88500000D03*
X123000000Y-88500000D03*
%TD*%
D21*
%TO.C,R1*%
X128710000Y-114750000D03*
D22*
X133790000Y-114750000D03*
%TD*%
D38*
%TO.C,Q1*%
X174000000Y-108500000D03*
X174000000Y-110850000D03*
X180400000Y-108500000D03*
X180400000Y-110850000D03*
D39*
X175650000Y-108725000D03*
D40*
X175650000Y-110525000D03*
D41*
X177025000Y-108825000D03*
X177025000Y-110525000D03*
%TD*%
D23*
%TO.C,J2*%
X167920000Y-61000000D03*
D24*
X173000000Y-61000000D03*
%TD*%
D23*
%TO.C,J1*%
X127705000Y-66672500D03*
D24*
X132785000Y-66672500D03*
%TD*%
D25*
%TO.C,D3*%
X203420000Y-85250000D03*
D26*
X213580000Y-85250000D03*
%TD*%
D25*
%TO.C,D2*%
X202920000Y-73500000D03*
D26*
X213080000Y-73500000D03*
%TD*%
D25*
%TO.C,D1*%
X202670000Y-60500000D03*
D26*
X212830000Y-60500000D03*
%TD*%
D27*
%TO.C,C2*%
X204000000Y-99500000D03*
X214000000Y-99500000D03*
%TD*%
D42*
X147738333Y-113949580D02*
X147690714Y-113997200D01*
X147690714Y-113997200D02*
X147547857Y-114044819D01*
X147547857Y-114044819D02*
X147452619Y-114044819D01*
X147452619Y-114044819D02*
X147309762Y-113997200D01*
X147309762Y-113997200D02*
X147214524Y-113901961D01*
X147214524Y-113901961D02*
X147166905Y-113806723D01*
X147166905Y-113806723D02*
X147119286Y-113616247D01*
X147119286Y-113616247D02*
X147119286Y-113473390D01*
X147119286Y-113473390D02*
X147166905Y-113282914D01*
X147166905Y-113282914D02*
X147214524Y-113187676D01*
X147214524Y-113187676D02*
X147309762Y-113092438D01*
X147309762Y-113092438D02*
X147452619Y-113044819D01*
X147452619Y-113044819D02*
X147547857Y-113044819D01*
X147547857Y-113044819D02*
X147690714Y-113092438D01*
X147690714Y-113092438D02*
X147738333Y-113140057D01*
X148690714Y-114044819D02*
X148119286Y-114044819D01*
X148405000Y-114044819D02*
X148405000Y-113044819D01*
X148405000Y-113044819D02*
X148309762Y-113187676D01*
X148309762Y-113187676D02*
X148214524Y-113282914D01*
X148214524Y-113282914D02*
X148119286Y-113330533D01*
X141063095Y-85884819D02*
X141063095Y-86694342D01*
X141063095Y-86694342D02*
X141110714Y-86789580D01*
X141110714Y-86789580D02*
X141158333Y-86837200D01*
X141158333Y-86837200D02*
X141253571Y-86884819D01*
X141253571Y-86884819D02*
X141444047Y-86884819D01*
X141444047Y-86884819D02*
X141539285Y-86837200D01*
X141539285Y-86837200D02*
X141586904Y-86789580D01*
X141586904Y-86789580D02*
X141634523Y-86694342D01*
X141634523Y-86694342D02*
X141634523Y-85884819D01*
X142634523Y-86884819D02*
X142063095Y-86884819D01*
X142348809Y-86884819D02*
X142348809Y-85884819D01*
X142348809Y-85884819D02*
X142253571Y-86027676D01*
X142253571Y-86027676D02*
X142158333Y-86122914D01*
X142158333Y-86122914D02*
X142063095Y-86170533D01*
X173354761Y-82304819D02*
X173021428Y-81828628D01*
X172783333Y-82304819D02*
X172783333Y-81304819D01*
X172783333Y-81304819D02*
X173164285Y-81304819D01*
X173164285Y-81304819D02*
X173259523Y-81352438D01*
X173259523Y-81352438D02*
X173307142Y-81400057D01*
X173307142Y-81400057D02*
X173354761Y-81495295D01*
X173354761Y-81495295D02*
X173354761Y-81638152D01*
X173354761Y-81638152D02*
X173307142Y-81733390D01*
X173307142Y-81733390D02*
X173259523Y-81781009D01*
X173259523Y-81781009D02*
X173164285Y-81828628D01*
X173164285Y-81828628D02*
X172783333Y-81828628D01*
X173640476Y-81304819D02*
X173973809Y-82304819D01*
X173973809Y-82304819D02*
X174307142Y-81304819D01*
X175164285Y-82304819D02*
X174592857Y-82304819D01*
X174878571Y-82304819D02*
X174878571Y-81304819D01*
X174878571Y-81304819D02*
X174783333Y-81447676D01*
X174783333Y-81447676D02*
X174688095Y-81542914D01*
X174688095Y-81542914D02*
X174592857Y-81590533D01*
X122008333Y-87524819D02*
X121675000Y-87048628D01*
X121436905Y-87524819D02*
X121436905Y-86524819D01*
X121436905Y-86524819D02*
X121817857Y-86524819D01*
X121817857Y-86524819D02*
X121913095Y-86572438D01*
X121913095Y-86572438D02*
X121960714Y-86620057D01*
X121960714Y-86620057D02*
X122008333Y-86715295D01*
X122008333Y-86715295D02*
X122008333Y-86858152D01*
X122008333Y-86858152D02*
X121960714Y-86953390D01*
X121960714Y-86953390D02*
X121913095Y-87001009D01*
X121913095Y-87001009D02*
X121817857Y-87048628D01*
X121817857Y-87048628D02*
X121436905Y-87048628D01*
X122389286Y-86620057D02*
X122436905Y-86572438D01*
X122436905Y-86572438D02*
X122532143Y-86524819D01*
X122532143Y-86524819D02*
X122770238Y-86524819D01*
X122770238Y-86524819D02*
X122865476Y-86572438D01*
X122865476Y-86572438D02*
X122913095Y-86620057D01*
X122913095Y-86620057D02*
X122960714Y-86715295D01*
X122960714Y-86715295D02*
X122960714Y-86810533D01*
X122960714Y-86810533D02*
X122913095Y-86953390D01*
X122913095Y-86953390D02*
X122341667Y-87524819D01*
X122341667Y-87524819D02*
X122960714Y-87524819D01*
X131083333Y-113284819D02*
X130750000Y-112808628D01*
X130511905Y-113284819D02*
X130511905Y-112284819D01*
X130511905Y-112284819D02*
X130892857Y-112284819D01*
X130892857Y-112284819D02*
X130988095Y-112332438D01*
X130988095Y-112332438D02*
X131035714Y-112380057D01*
X131035714Y-112380057D02*
X131083333Y-112475295D01*
X131083333Y-112475295D02*
X131083333Y-112618152D01*
X131083333Y-112618152D02*
X131035714Y-112713390D01*
X131035714Y-112713390D02*
X130988095Y-112761009D01*
X130988095Y-112761009D02*
X130892857Y-112808628D01*
X130892857Y-112808628D02*
X130511905Y-112808628D01*
X132035714Y-113284819D02*
X131464286Y-113284819D01*
X131750000Y-113284819D02*
X131750000Y-112284819D01*
X131750000Y-112284819D02*
X131654762Y-112427676D01*
X131654762Y-112427676D02*
X131559524Y-112522914D01*
X131559524Y-112522914D02*
X131464286Y-112570533D01*
X177104761Y-113725057D02*
X177009523Y-113677438D01*
X177009523Y-113677438D02*
X176914285Y-113582200D01*
X176914285Y-113582200D02*
X176771428Y-113439342D01*
X176771428Y-113439342D02*
X176676190Y-113391723D01*
X176676190Y-113391723D02*
X176580952Y-113391723D01*
X176628571Y-113629819D02*
X176533333Y-113582200D01*
X176533333Y-113582200D02*
X176438095Y-113486961D01*
X176438095Y-113486961D02*
X176390476Y-113296485D01*
X176390476Y-113296485D02*
X176390476Y-112963152D01*
X176390476Y-112963152D02*
X176438095Y-112772676D01*
X176438095Y-112772676D02*
X176533333Y-112677438D01*
X176533333Y-112677438D02*
X176628571Y-112629819D01*
X176628571Y-112629819D02*
X176819047Y-112629819D01*
X176819047Y-112629819D02*
X176914285Y-112677438D01*
X176914285Y-112677438D02*
X177009523Y-112772676D01*
X177009523Y-112772676D02*
X177057142Y-112963152D01*
X177057142Y-112963152D02*
X177057142Y-113296485D01*
X177057142Y-113296485D02*
X177009523Y-113486961D01*
X177009523Y-113486961D02*
X176914285Y-113582200D01*
X176914285Y-113582200D02*
X176819047Y-113629819D01*
X176819047Y-113629819D02*
X176628571Y-113629819D01*
X178009523Y-113629819D02*
X177438095Y-113629819D01*
X177723809Y-113629819D02*
X177723809Y-112629819D01*
X177723809Y-112629819D02*
X177628571Y-112772676D01*
X177628571Y-112772676D02*
X177533333Y-112867914D01*
X177533333Y-112867914D02*
X177438095Y-112915533D01*
X170126666Y-54134819D02*
X170126666Y-54849104D01*
X170126666Y-54849104D02*
X170079047Y-54991961D01*
X170079047Y-54991961D02*
X169983809Y-55087200D01*
X169983809Y-55087200D02*
X169840952Y-55134819D01*
X169840952Y-55134819D02*
X169745714Y-55134819D01*
X170555238Y-54230057D02*
X170602857Y-54182438D01*
X170602857Y-54182438D02*
X170698095Y-54134819D01*
X170698095Y-54134819D02*
X170936190Y-54134819D01*
X170936190Y-54134819D02*
X171031428Y-54182438D01*
X171031428Y-54182438D02*
X171079047Y-54230057D01*
X171079047Y-54230057D02*
X171126666Y-54325295D01*
X171126666Y-54325295D02*
X171126666Y-54420533D01*
X171126666Y-54420533D02*
X171079047Y-54563390D01*
X171079047Y-54563390D02*
X170507619Y-55134819D01*
X170507619Y-55134819D02*
X171126666Y-55134819D01*
X129911666Y-59807319D02*
X129911666Y-60521604D01*
X129911666Y-60521604D02*
X129864047Y-60664461D01*
X129864047Y-60664461D02*
X129768809Y-60759700D01*
X129768809Y-60759700D02*
X129625952Y-60807319D01*
X129625952Y-60807319D02*
X129530714Y-60807319D01*
X130911666Y-60807319D02*
X130340238Y-60807319D01*
X130625952Y-60807319D02*
X130625952Y-59807319D01*
X130625952Y-59807319D02*
X130530714Y-59950176D01*
X130530714Y-59950176D02*
X130435476Y-60045414D01*
X130435476Y-60045414D02*
X130340238Y-60093033D01*
X207761905Y-83234819D02*
X207761905Y-82234819D01*
X207761905Y-82234819D02*
X208000000Y-82234819D01*
X208000000Y-82234819D02*
X208142857Y-82282438D01*
X208142857Y-82282438D02*
X208238095Y-82377676D01*
X208238095Y-82377676D02*
X208285714Y-82472914D01*
X208285714Y-82472914D02*
X208333333Y-82663390D01*
X208333333Y-82663390D02*
X208333333Y-82806247D01*
X208333333Y-82806247D02*
X208285714Y-82996723D01*
X208285714Y-82996723D02*
X208238095Y-83091961D01*
X208238095Y-83091961D02*
X208142857Y-83187200D01*
X208142857Y-83187200D02*
X208000000Y-83234819D01*
X208000000Y-83234819D02*
X207761905Y-83234819D01*
X208666667Y-82234819D02*
X209285714Y-82234819D01*
X209285714Y-82234819D02*
X208952381Y-82615771D01*
X208952381Y-82615771D02*
X209095238Y-82615771D01*
X209095238Y-82615771D02*
X209190476Y-82663390D01*
X209190476Y-82663390D02*
X209238095Y-82711009D01*
X209238095Y-82711009D02*
X209285714Y-82806247D01*
X209285714Y-82806247D02*
X209285714Y-83044342D01*
X209285714Y-83044342D02*
X209238095Y-83139580D01*
X209238095Y-83139580D02*
X209190476Y-83187200D01*
X209190476Y-83187200D02*
X209095238Y-83234819D01*
X209095238Y-83234819D02*
X208809524Y-83234819D01*
X208809524Y-83234819D02*
X208714286Y-83187200D01*
X208714286Y-83187200D02*
X208666667Y-83139580D01*
X203158095Y-83604819D02*
X203158095Y-82604819D01*
X203729523Y-83604819D02*
X203300952Y-83033390D01*
X203729523Y-82604819D02*
X203158095Y-83176247D01*
X207261905Y-71484819D02*
X207261905Y-70484819D01*
X207261905Y-70484819D02*
X207500000Y-70484819D01*
X207500000Y-70484819D02*
X207642857Y-70532438D01*
X207642857Y-70532438D02*
X207738095Y-70627676D01*
X207738095Y-70627676D02*
X207785714Y-70722914D01*
X207785714Y-70722914D02*
X207833333Y-70913390D01*
X207833333Y-70913390D02*
X207833333Y-71056247D01*
X207833333Y-71056247D02*
X207785714Y-71246723D01*
X207785714Y-71246723D02*
X207738095Y-71341961D01*
X207738095Y-71341961D02*
X207642857Y-71437200D01*
X207642857Y-71437200D02*
X207500000Y-71484819D01*
X207500000Y-71484819D02*
X207261905Y-71484819D01*
X208214286Y-70580057D02*
X208261905Y-70532438D01*
X208261905Y-70532438D02*
X208357143Y-70484819D01*
X208357143Y-70484819D02*
X208595238Y-70484819D01*
X208595238Y-70484819D02*
X208690476Y-70532438D01*
X208690476Y-70532438D02*
X208738095Y-70580057D01*
X208738095Y-70580057D02*
X208785714Y-70675295D01*
X208785714Y-70675295D02*
X208785714Y-70770533D01*
X208785714Y-70770533D02*
X208738095Y-70913390D01*
X208738095Y-70913390D02*
X208166667Y-71484819D01*
X208166667Y-71484819D02*
X208785714Y-71484819D01*
X202658095Y-71854819D02*
X202658095Y-70854819D01*
X203229523Y-71854819D02*
X202800952Y-71283390D01*
X203229523Y-70854819D02*
X202658095Y-71426247D01*
X207011905Y-58484819D02*
X207011905Y-57484819D01*
X207011905Y-57484819D02*
X207250000Y-57484819D01*
X207250000Y-57484819D02*
X207392857Y-57532438D01*
X207392857Y-57532438D02*
X207488095Y-57627676D01*
X207488095Y-57627676D02*
X207535714Y-57722914D01*
X207535714Y-57722914D02*
X207583333Y-57913390D01*
X207583333Y-57913390D02*
X207583333Y-58056247D01*
X207583333Y-58056247D02*
X207535714Y-58246723D01*
X207535714Y-58246723D02*
X207488095Y-58341961D01*
X207488095Y-58341961D02*
X207392857Y-58437200D01*
X207392857Y-58437200D02*
X207250000Y-58484819D01*
X207250000Y-58484819D02*
X207011905Y-58484819D01*
X208535714Y-58484819D02*
X207964286Y-58484819D01*
X208250000Y-58484819D02*
X208250000Y-57484819D01*
X208250000Y-57484819D02*
X208154762Y-57627676D01*
X208154762Y-57627676D02*
X208059524Y-57722914D01*
X208059524Y-57722914D02*
X207964286Y-57770533D01*
X202408095Y-58854819D02*
X202408095Y-57854819D01*
X202979523Y-58854819D02*
X202550952Y-58283390D01*
X202979523Y-57854819D02*
X202408095Y-58426247D01*
X208833333Y-96109580D02*
X208785714Y-96157200D01*
X208785714Y-96157200D02*
X208642857Y-96204819D01*
X208642857Y-96204819D02*
X208547619Y-96204819D01*
X208547619Y-96204819D02*
X208404762Y-96157200D01*
X208404762Y-96157200D02*
X208309524Y-96061961D01*
X208309524Y-96061961D02*
X208261905Y-95966723D01*
X208261905Y-95966723D02*
X208214286Y-95776247D01*
X208214286Y-95776247D02*
X208214286Y-95633390D01*
X208214286Y-95633390D02*
X208261905Y-95442914D01*
X208261905Y-95442914D02*
X208309524Y-95347676D01*
X208309524Y-95347676D02*
X208404762Y-95252438D01*
X208404762Y-95252438D02*
X208547619Y-95204819D01*
X208547619Y-95204819D02*
X208642857Y-95204819D01*
X208642857Y-95204819D02*
X208785714Y-95252438D01*
X208785714Y-95252438D02*
X208833333Y-95300057D01*
X209214286Y-95300057D02*
X209261905Y-95252438D01*
X209261905Y-95252438D02*
X209357143Y-95204819D01*
X209357143Y-95204819D02*
X209595238Y-95204819D01*
X209595238Y-95204819D02*
X209690476Y-95252438D01*
X209690476Y-95252438D02*
X209738095Y-95300057D01*
X209738095Y-95300057D02*
X209785714Y-95395295D01*
X209785714Y-95395295D02*
X209785714Y-95490533D01*
X209785714Y-95490533D02*
X209738095Y-95633390D01*
X209738095Y-95633390D02*
X209166667Y-96204819D01*
X209166667Y-96204819D02*
X209785714Y-96204819D01*
D43*
%TO.C,C1*%
X147797164Y-114390000D02*
X148012836Y-114390000D01*
X147797164Y-115110000D02*
X148012836Y-115110000D01*
%TO.C,U1*%
X141825000Y-87270000D02*
X139875000Y-87270000D01*
X141825000Y-87270000D02*
X143775000Y-87270000D01*
X141825000Y-92390000D02*
X139875000Y-92390000D01*
X141825000Y-92390000D02*
X143775000Y-92390000D01*
X139125000Y-87365000D02*
X138885000Y-87035000D01*
X139365000Y-87035000D01*
X139125000Y-87365000D01*
G36*
X139125000Y-87365000D02*
G01*
X138885000Y-87035000D01*
X139365000Y-87035000D01*
X139125000Y-87365000D01*
G37*
%TO.C,RV1*%
X168305000Y-85445000D02*
X168305000Y-87875000D01*
X168305000Y-85445000D02*
X169824000Y-85445000D01*
X168305000Y-86660000D02*
X169064000Y-86660000D01*
X168305000Y-87875000D02*
X169824000Y-87875000D01*
X169824000Y-85445000D02*
X169824000Y-87875000D01*
X169825000Y-82980000D02*
X169825000Y-88050000D01*
X169825000Y-82980000D02*
X179595000Y-82980000D01*
X169825000Y-88050000D02*
X179595000Y-88050000D01*
X179595000Y-82980000D02*
X179595000Y-88050000D01*
%TO.C,R2*%
X121937742Y-87977500D02*
X122412258Y-87977500D01*
X121937742Y-89022500D02*
X122412258Y-89022500D01*
%TO.C,R1*%
X129330000Y-113830000D02*
X133170000Y-113830000D01*
X129330000Y-115670000D02*
X133170000Y-115670000D01*
%TO.C,Q1*%
X173550000Y-107275000D02*
X174300000Y-107275000D01*
X174300000Y-107275000D02*
X174400000Y-107175000D01*
X174400000Y-107175000D02*
X180000000Y-107175000D01*
X174400000Y-112175000D02*
X174300000Y-112075000D01*
X180000000Y-107175000D02*
X180100000Y-107275000D01*
X180000000Y-112175000D02*
X174400000Y-112175000D01*
X180100000Y-112075000D02*
X180000000Y-112175000D01*
%TO.C,J2*%
X165260000Y-55680000D02*
X165260000Y-65720000D01*
X165260000Y-55680000D02*
X175660000Y-55680000D01*
X165260000Y-58700000D02*
X175660000Y-58700000D01*
X165260000Y-63600000D02*
X175660000Y-63600000D01*
X165260000Y-65100000D02*
X175660000Y-65100000D01*
X165260000Y-65720000D02*
X167620000Y-65720000D01*
X168220000Y-65720000D02*
X175660000Y-65720000D01*
X171633000Y-62140000D02*
X171589000Y-62183000D01*
X171860000Y-62367000D02*
X171816000Y-62410000D01*
X174184000Y-59589000D02*
X174140000Y-59633000D01*
X174411000Y-59816000D02*
X174367000Y-59860000D01*
X175660000Y-55680000D02*
X175660000Y-65720000D01*
X166140000Y-61540000D02*
G75*
G02*
X166139794Y-60460679I1780000J540000D01*
G01*
X167380000Y-59220000D02*
G75*
G02*
X168459321Y-59219794I540000J-1780000D01*
G01*
X168460000Y-62780000D02*
G75*
G02*
X167380679Y-62780206I-540000J1780013D01*
G01*
X169700000Y-60460000D02*
G75*
G02*
X169700206Y-61539321I-1780013J-540000D01*
G01*
X174860000Y-61000000D02*
G75*
G02*
X171140000Y-61000000I-1860000J0D01*
G01*
X171140000Y-61000000D02*
G75*
G02*
X174860000Y-61000000I1860000J0D01*
G01*
X168360000Y-66330000D02*
X167480000Y-66330000D01*
X167920000Y-65720000D01*
X168360000Y-66330000D01*
G36*
X168360000Y-66330000D02*
G01*
X167480000Y-66330000D01*
X167920000Y-65720000D01*
X168360000Y-66330000D01*
G37*
%TO.C,J1*%
X125045000Y-61352500D02*
X125045000Y-71392500D01*
X125045000Y-61352500D02*
X135445000Y-61352500D01*
X125045000Y-64372500D02*
X135445000Y-64372500D01*
X125045000Y-69272500D02*
X135445000Y-69272500D01*
X125045000Y-70772500D02*
X135445000Y-70772500D01*
X125045000Y-71392500D02*
X127405000Y-71392500D01*
X128005000Y-71392500D02*
X135445000Y-71392500D01*
X131418000Y-67812500D02*
X131374000Y-67855500D01*
X131645000Y-68039500D02*
X131601000Y-68082500D01*
X133969000Y-65261500D02*
X133925000Y-65305500D01*
X134196000Y-65488500D02*
X134152000Y-65532500D01*
X135445000Y-61352500D02*
X135445000Y-71392500D01*
X125925000Y-67212500D02*
G75*
G02*
X125924794Y-66133179I1780000J540000D01*
G01*
X127165000Y-64892500D02*
G75*
G02*
X128244321Y-64892294I540000J-1780000D01*
G01*
X128245000Y-68452500D02*
G75*
G02*
X127165679Y-68452706I-540000J1780013D01*
G01*
X129485000Y-66132500D02*
G75*
G02*
X129485206Y-67211821I-1780013J-540000D01*
G01*
X134645000Y-66672500D02*
G75*
G02*
X130925000Y-66672500I-1860000J0D01*
G01*
X130925000Y-66672500D02*
G75*
G02*
X134645000Y-66672500I1860000J0D01*
G01*
X128145000Y-72002500D02*
X127265000Y-72002500D01*
X127705000Y-71392500D01*
X128145000Y-72002500D01*
G36*
X128145000Y-72002500D02*
G01*
X127265000Y-72002500D01*
X127705000Y-71392500D01*
X128145000Y-72002500D01*
G37*
%TO.C,D3*%
X204760000Y-85250000D02*
X205780000Y-85250000D01*
X205780000Y-83780000D02*
X205780000Y-86720000D01*
X205780000Y-86720000D02*
X211220000Y-86720000D01*
X206560000Y-83780000D02*
X206560000Y-86720000D01*
X206680000Y-83780000D02*
X206680000Y-86720000D01*
X206800000Y-83780000D02*
X206800000Y-86720000D01*
X211220000Y-83780000D02*
X205780000Y-83780000D01*
X211220000Y-86720000D02*
X211220000Y-83780000D01*
X212240000Y-85250000D02*
X211220000Y-85250000D01*
%TO.C,D2*%
X204260000Y-73500000D02*
X205280000Y-73500000D01*
X205280000Y-72030000D02*
X205280000Y-74970000D01*
X205280000Y-74970000D02*
X210720000Y-74970000D01*
X206060000Y-72030000D02*
X206060000Y-74970000D01*
X206180000Y-72030000D02*
X206180000Y-74970000D01*
X206300000Y-72030000D02*
X206300000Y-74970000D01*
X210720000Y-72030000D02*
X205280000Y-72030000D01*
X210720000Y-74970000D02*
X210720000Y-72030000D01*
X211740000Y-73500000D02*
X210720000Y-73500000D01*
%TO.C,D1*%
X204010000Y-60500000D02*
X205030000Y-60500000D01*
X205030000Y-59030000D02*
X205030000Y-61970000D01*
X205030000Y-61970000D02*
X210470000Y-61970000D01*
X205810000Y-59030000D02*
X205810000Y-61970000D01*
X205930000Y-59030000D02*
X205930000Y-61970000D01*
X206050000Y-59030000D02*
X206050000Y-61970000D01*
X210470000Y-59030000D02*
X205030000Y-59030000D01*
X210470000Y-61970000D02*
X210470000Y-59030000D01*
X211490000Y-60500000D02*
X210470000Y-60500000D01*
%TO.C,C2*%
X204880000Y-96880000D02*
X204880000Y-98554000D01*
X204880000Y-96880000D02*
X213120000Y-96880000D01*
X204880000Y-100446000D02*
X204880000Y-102120000D01*
X204880000Y-102120000D02*
X213120000Y-102120000D01*
X213120000Y-96880000D02*
X213120000Y-98554000D01*
X213120000Y-100446000D02*
X213120000Y-102120000D01*
%TD*%
D44*
X112500000Y-49250000D02*
X232250000Y-49250000D01*
X232250000Y-124250000D01*
X112500000Y-124250000D01*
X112500000Y-49250000D01*
D35*
%TO.C,C1*%
X147425000Y-114750000D03*
X148385000Y-114750000D03*
%TD*%
D36*
%TO.C,U1*%
X139350000Y-87925000D03*
X139350000Y-89195000D03*
X139350000Y-90465000D03*
X139350000Y-91735000D03*
X144300000Y-91735000D03*
X144300000Y-90465000D03*
X144300000Y-89195000D03*
X144300000Y-87925000D03*
%TD*%
D37*
%TO.C,R2*%
X121350000Y-88500000D03*
X123000000Y-88500000D03*
%TD*%
D38*
%TO.C,Q1*%
X174000000Y-108500000D03*
X174000000Y-110850000D03*
X180400000Y-108500000D03*
X180400000Y-110850000D03*
D39*
X175650000Y-108725000D03*
D40*
X175650000Y-110525000D03*
D41*
X177025000Y-108825000D03*
X177025000Y-110525000D03*
%TD*%
M02*
