M48
; DRILL file {KiCad 9.0.0} date 2025-03-20T10:05:37+0530
; FORMAT={3:3/ absolute / metric / suppress leading zeros}
; #@! TF.CreationDate,2025-03-20T10:05:37+05:30
; #@! TF.GenerationSoftware,Kicad,Pcbnew,9.0.0
; #@! TF.FileFunction,Plated,1,2,PTH
FMAT,2
METRIC,TZ
; #@! TA.AperFunction,Plated,PTH,ViaDrill
T1C0.300
; #@! TA.AperFunction,Plated,PTH,ComponentDrill
T2C0.700
; #@! TA.AperFunction,Plated,PTH,ComponentDrill
T3C0.800
; #@! TA.AperFunction,Plated,PTH,ComponentDrill
T4C1.000
; #@! TA.AperFunction,Plated,PTH,ComponentDrill
T5C1.100
; #@! TA.AperFunction,Plated,PTH,ComponentDrill
T6C1.300
%
G90
G05
T1
X132750Y-98500
X137250Y-93750
X139000Y-57250
X139000Y-82500
X139250Y-85250
X144500Y-57250
X144500Y-79750
X146250Y-93750
X146250Y-96500
X147000Y-87500
X150250Y-92500
X150750Y-116500
X155500Y-91250
X175000Y-116500
X179250Y-115250
X182500Y-115000
X195000Y-89750
X203000Y-93000
T2
X128710Y-114750
X133790Y-114750
T3
X172170Y-84250
X174710Y-86790
X177250Y-84250
T4
X204000Y-99500
X214000Y-99500
T5
X202670Y-60500
X202920Y-73500
X203420Y-85250
X212830Y-60500
X213080Y-73500
X213580Y-85250
T6
X127705Y-66673
X132785Y-66673
X167920Y-61000
X173000Y-61000
M30
