%TF.GenerationSoftware,KiCad,Pcbnew,9.0.0*%
%TF.CreationDate,2025-03-20T10:05:37+05:30*%
%TF.ProjectId,Buck Convertor,4275636b-2043-46f6-9e76-6572746f722e,rev?*%
%TF.SameCoordinates,Original*%
%TF.FileFunction,Drillmap*%
%TF.FilePolarity,Positive*%
%FSLAX45Y45*%
G04 Gerber Fmt 4.5, Leading zero omitted, Abs format (unit mm)*
G04 Created by KiCad (PCBNEW 9.0.0) date 2025-03-20 10:05:37*
%MOMM*%
%LPD*%
G01*
G04 APERTURE LIST*
%ADD10C,0.050000*%
%ADD11C,0.200000*%
G04 APERTURE END LIST*
D10*
X11250000Y-4925000D02*
X23225000Y-4925000D01*
X23225000Y-12425000D01*
X11250000Y-12425000D01*
X11250000Y-4925000D01*
D11*
X11508277Y-12738984D02*
X11508277Y-12538984D01*
X11508277Y-12538984D02*
X11555896Y-12538984D01*
X11555896Y-12538984D02*
X11584467Y-12548508D01*
X11584467Y-12548508D02*
X11603515Y-12567555D01*
X11603515Y-12567555D02*
X11613039Y-12586603D01*
X11613039Y-12586603D02*
X11622562Y-12624698D01*
X11622562Y-12624698D02*
X11622562Y-12653269D01*
X11622562Y-12653269D02*
X11613039Y-12691365D01*
X11613039Y-12691365D02*
X11603515Y-12710412D01*
X11603515Y-12710412D02*
X11584467Y-12729460D01*
X11584467Y-12729460D02*
X11555896Y-12738984D01*
X11555896Y-12738984D02*
X11508277Y-12738984D01*
X11708277Y-12738984D02*
X11708277Y-12605650D01*
X11708277Y-12643746D02*
X11717801Y-12624698D01*
X11717801Y-12624698D02*
X11727324Y-12615174D01*
X11727324Y-12615174D02*
X11746372Y-12605650D01*
X11746372Y-12605650D02*
X11765420Y-12605650D01*
X11832086Y-12738984D02*
X11832086Y-12605650D01*
X11832086Y-12538984D02*
X11822562Y-12548508D01*
X11822562Y-12548508D02*
X11832086Y-12558031D01*
X11832086Y-12558031D02*
X11841610Y-12548508D01*
X11841610Y-12548508D02*
X11832086Y-12538984D01*
X11832086Y-12538984D02*
X11832086Y-12558031D01*
X11955896Y-12738984D02*
X11936848Y-12729460D01*
X11936848Y-12729460D02*
X11927324Y-12710412D01*
X11927324Y-12710412D02*
X11927324Y-12538984D01*
X12060658Y-12738984D02*
X12041610Y-12729460D01*
X12041610Y-12729460D02*
X12032086Y-12710412D01*
X12032086Y-12710412D02*
X12032086Y-12538984D01*
X12289229Y-12738984D02*
X12289229Y-12538984D01*
X12289229Y-12538984D02*
X12355896Y-12681841D01*
X12355896Y-12681841D02*
X12422562Y-12538984D01*
X12422562Y-12538984D02*
X12422562Y-12738984D01*
X12603515Y-12738984D02*
X12603515Y-12634222D01*
X12603515Y-12634222D02*
X12593991Y-12615174D01*
X12593991Y-12615174D02*
X12574943Y-12605650D01*
X12574943Y-12605650D02*
X12536848Y-12605650D01*
X12536848Y-12605650D02*
X12517801Y-12615174D01*
X12603515Y-12729460D02*
X12584467Y-12738984D01*
X12584467Y-12738984D02*
X12536848Y-12738984D01*
X12536848Y-12738984D02*
X12517801Y-12729460D01*
X12517801Y-12729460D02*
X12508277Y-12710412D01*
X12508277Y-12710412D02*
X12508277Y-12691365D01*
X12508277Y-12691365D02*
X12517801Y-12672317D01*
X12517801Y-12672317D02*
X12536848Y-12662793D01*
X12536848Y-12662793D02*
X12584467Y-12662793D01*
X12584467Y-12662793D02*
X12603515Y-12653269D01*
X12698753Y-12605650D02*
X12698753Y-12805650D01*
X12698753Y-12615174D02*
X12717801Y-12605650D01*
X12717801Y-12605650D02*
X12755896Y-12605650D01*
X12755896Y-12605650D02*
X12774943Y-12615174D01*
X12774943Y-12615174D02*
X12784467Y-12624698D01*
X12784467Y-12624698D02*
X12793991Y-12643746D01*
X12793991Y-12643746D02*
X12793991Y-12700888D01*
X12793991Y-12700888D02*
X12784467Y-12719936D01*
X12784467Y-12719936D02*
X12774943Y-12729460D01*
X12774943Y-12729460D02*
X12755896Y-12738984D01*
X12755896Y-12738984D02*
X12717801Y-12738984D01*
X12717801Y-12738984D02*
X12698753Y-12729460D01*
X12879705Y-12719936D02*
X12889229Y-12729460D01*
X12889229Y-12729460D02*
X12879705Y-12738984D01*
X12879705Y-12738984D02*
X12870182Y-12729460D01*
X12870182Y-12729460D02*
X12879705Y-12719936D01*
X12879705Y-12719936D02*
X12879705Y-12738984D01*
X12879705Y-12615174D02*
X12889229Y-12624698D01*
X12889229Y-12624698D02*
X12879705Y-12634222D01*
X12879705Y-12634222D02*
X12870182Y-12624698D01*
X12870182Y-12624698D02*
X12879705Y-12615174D01*
X12879705Y-12615174D02*
X12879705Y-12634222D01*
M02*
